<?xml version="1.0" encoding="UTF-8" standalone="no"?>
<!-- Created with Inkscape (http://www.inkscape.org/) -->

<svg
   xmlns:dc="http://purl.org/dc/elements/1.1/"
   xmlns:cc="http://creativecommons.org/ns#"
   xmlns:rdf="http://www.w3.org/1999/02/22-rdf-syntax-ns#"
   xmlns:svg="http://www.w3.org/2000/svg"
   xmlns="http://www.w3.org/2000/svg"
   version="1.1"
   width="32"
   height="28"
   viewBox="0 0 32 28"
   id="svg2"
   xml:space="preserve"><metadata
   id="metadata12"><rdf:RDF><cc:Work
       rdf:about=""><dc:format>image/svg+xml</dc:format><dc:type
         rdf:resource="http://purl.org/dc/dcmitype/StillImage" /><dc:title></dc:title></cc:Work></rdf:RDF></metadata><defs
   id="defs10" />
<g
   id="Layer_1">
</g>
<g
   id="book_x5F_alt2"
   style="fill:#84be0e;fill-opacity:1;stroke:none">
	<path
   d="M 16,4 C 16,4 12,0 0,0 v 24 c 12.125,0 16,4 16,4 0,0 3.875,-4 16,-4 V 0 C 20,0 16,4 16,4 z M 4,4 c 5.084,0.426 8.203,1.602 10,2.555 V 22.664 C 12.203,21.715 9.084,20.539 4,20.109 V 4 z m 24,16.109 c -5.086,0.43 -8.205,1.605 -10,2.555 V 6.555 C 19.795,5.602 22.914,4.426 28,4 v 16.109 z"
   id="path6"
   style="fill:#84be0e;fill-opacity:1;stroke:none" />
</g>
</svg>