<?xml version="1.0" encoding="UTF-8" standalone="no"?>
<!-- Generator: Adobe Illustrator 15.1.0, SVG Export Plug-In . SVG Version: 6.00 Build 0)  -->

<svg
   xmlns:dc="http://purl.org/dc/elements/1.1/"
   xmlns:cc="http://creativecommons.org/ns#"
   xmlns:rdf="http://www.w3.org/1999/02/22-rdf-syntax-ns#"
   xmlns:svg="http://www.w3.org/2000/svg"
   xmlns="http://www.w3.org/2000/svg"
   xmlns:sodipodi="http://sodipodi.sourceforge.net/DTD/sodipodi-0.dtd"
   xmlns:inkscape="http://www.inkscape.org/namespaces/inkscape"
   version="1.1"
   x="0px"
   y="0px"
   width="32px"
   height="32px"
   viewBox="0 0 32 32"
   style="enable-background:new 0 0 32 32;"
   xml:space="preserve"
   id="svg4397"
   inkscape:version="0.48.4 r9939"
   sodipodi:docname="cog.svg"><metadata
   id="metadata4407"><rdf:RDF><cc:Work
       rdf:about=""><dc:format>image/svg+xml</dc:format><dc:type
         rdf:resource="http://purl.org/dc/dcmitype/StillImage" /><dc:title></dc:title></cc:Work></rdf:RDF></metadata><defs
   id="defs4405" /><sodipodi:namedview
   pagecolor="#ffffff"
   bordercolor="#666666"
   borderopacity="1"
   objecttolerance="10"
   gridtolerance="10"
   guidetolerance="10"
   inkscape:pageopacity="0"
   inkscape:pageshadow="2"
   inkscape:window-width="1920"
   inkscape:window-height="1138"
   id="namedview4403"
   showgrid="false"
   inkscape:zoom="14.75"
   inkscape:cx="21.808853"
   inkscape:cy="23.891674"
   inkscape:window-x="-8"
   inkscape:window-y="-8"
   inkscape:window-maximized="1"
   inkscape:current-layer="svg4397" />
<g
   id="Layer_1">
</g>
<g
   id="cog"
   style="fill:#84be0e;fill-opacity:1">
	<path
   style="fill:#84be0e;fill-opacity:1"
   d="M32,17.969v-4l-4.781-1.992c-0.133-0.375-0.273-0.738-0.445-1.094l1.93-4.805L25.875,3.25   l-4.762,1.961c-0.363-0.176-0.734-0.324-1.117-0.461L17.969,0h-4l-1.977,4.734c-0.398,0.141-0.781,0.289-1.16,0.469l-4.754-1.91   L3.25,6.121l1.938,4.711C5,11.219,4.848,11.613,4.703,12.02L0,14.031v4l4.707,1.961c0.145,0.406,0.301,0.801,0.488,1.188   l-1.902,4.742l2.828,2.828l4.723-1.945c0.379,0.18,0.766,0.324,1.164,0.461L14.031,32h4l1.98-4.758   c0.379-0.141,0.754-0.289,1.113-0.461l4.797,1.922l2.828-2.828l-1.969-4.773c0.168-0.359,0.305-0.723,0.438-1.094L32,17.969z    M15.969,22c-3.312,0-6-2.688-6-6s2.688-6,6-6s6,2.688,6,6S19.281,22,15.969,22z"
   id="path4401" />
</g>
<path
   style="fill:#84be0e;fill-opacity:1;fill-rule:nonzero;stroke:none"
   d="M 13.088716,29.615668 12.089296,27.230567 11.486755,26.972287 10.884213,26.714008 8.5092153,27.684302 6.1342172,28.654598 4.7620346,27.282415 3.3898521,25.910232 4.3160948,23.586888 C 5.178699,21.423173 5.2320702,21.229276 5.0928987,20.764762 5.0107073,20.490433 4.8654186,20.169531 4.770035,20.051647 4.6746514,19.933765 3.5730259,19.417444 2.3219784,18.904267 L 0.04734663,17.971216 0.08469026,16.016129 0.1220339,14.06104 2.4271186,13.074915 C 4.6218818,12.135985 4.7436565,12.063951 4.9715085,11.569818 5.1031264,11.284384 5.187304,10.898305 5.15857,10.711864 5.1298361,10.525424 4.7080949,9.4197647 4.2213673,8.2548445 L 3.3364081,6.1368077 4.715357,4.7625517 6.0943059,3.3882957 8.4741233,4.343632 10.85394,5.2989683 11.454089,5.0414513 12.054237,4.7839342 13.056115,2.3919671 14.057992,0 l 1.918384,0 1.918382,0 1.011943,2.3910751 1.011943,2.3910753 0.595162,0.2562716 0.595162,0.2562716 2.362949,-0.9748613 2.362948,-0.9748613 1.346975,1.3419197 c 0.740835,0.7380559 1.346974,1.4033625 1.346974,1.4784591 0,0.075097 -0.406994,1.1574229 -0.90443,2.4051693 -0.890804,2.2344499 -0.901663,2.2770149 -0.72076,2.8251569 0.212178,0.642906 0.233396,0.655483 3.086282,1.829475 l 1.93567,0.796547 -0.03736,1.968301 -0.03736,1.968301 -2.305084,0.971471 c -2.075166,0.874573 -2.328103,1.016971 -2.535861,1.42763 -0.126926,0.250886 -0.233705,0.560943 -0.237288,0.689015 -0.0036,0.128071 0.418267,1.256884 0.937444,2.508475 l 0.943957,2.275617 -1.387083,1.391491 -1.387083,1.39149 -2.370433,-0.953644 -2.370433,-0.953643 -0.598503,0.245432 -0.598503,0.245432 -0.978339,2.367569 -0.978338,2.367568 -1.948583,0.03428 -1.948581,0.03428 -0.99942,-2.385101 z m 4.945898,-7.941321 c 2.741002,-1.011359 4.359762,-3.79293 3.874331,-6.657398 C 21.688,13.71318 21.172564,12.712007 20.23158,11.758863 17.836918,9.3332579 13.950164,9.3706287 11.613101,11.841729 10.465396,13.055258 9.9554778,14.334426 9.9554778,16 c 0,1.665574 0.5099182,2.944742 1.6576232,4.158271 1.646061,1.740467 4.187313,2.34044 6.421513,1.516076 z"
   id="path4409"
   inkscape:connector-curvature="0" /></svg>