<?xml version="1.0" encoding="UTF-8" standalone="no"?>
<!-- Generator: Adobe Illustrator 15.1.0, SVG Export Plug-In . SVG Version: 6.00 Build 0)  -->

<svg
   xmlns:dc="http://purl.org/dc/elements/1.1/"
   xmlns:cc="http://creativecommons.org/ns#"
   xmlns:rdf="http://www.w3.org/1999/02/22-rdf-syntax-ns#"
   xmlns:svg="http://www.w3.org/2000/svg"
   xmlns="http://www.w3.org/2000/svg"
   xmlns:sodipodi="http://sodipodi.sourceforge.net/DTD/sodipodi-0.dtd"
   xmlns:inkscape="http://www.inkscape.org/namespaces/inkscape"
   version="1.1"
   x="0px"
   y="0px"
   width="32px"
   height="32px"
   viewBox="0 0 32 32"
   style="enable-background:new 0 0 32 32;"
   xml:space="preserve"
   id="svg2"
   inkscape:version="0.48.4 r9939"
   sodipodi:docname="link.svg"><metadata
   id="metadata14"><rdf:RDF><cc:Work
       rdf:about=""><dc:format>image/svg+xml</dc:format><dc:type
         rdf:resource="http://purl.org/dc/dcmitype/StillImage" /><dc:title></dc:title></cc:Work></rdf:RDF></metadata><defs
   id="defs12" /><sodipodi:namedview
   pagecolor="#ffffff"
   bordercolor="#666666"
   borderopacity="1"
   objecttolerance="10"
   gridtolerance="10"
   guidetolerance="10"
   inkscape:pageopacity="0"
   inkscape:pageshadow="2"
   inkscape:window-width="678"
   inkscape:window-height="480"
   id="namedview10"
   showgrid="false"
   inkscape:zoom="7.375"
   inkscape:cx="16"
   inkscape:cy="16"
   inkscape:window-x="0"
   inkscape:window-y="0"
   inkscape:window-maximized="0"
   inkscape:current-layer="svg2" />
<g
   id="Layer_1">
</g>
<g
   id="link"
   style="fill:#84be0e;fill-opacity:1">
	<g
   id="g6"
   style="fill:#84be0e;fill-opacity:1">
		<path
   style="fill:#84be0e;fill-opacity:1"
   d="M31.414,0.586c-0.781-0.781-2.059-0.781-2.84,0l-4.07,4.074C22.836,3.551,20.922,3,19,3    c-2.559,0-5.201,0.977-7.07,2.93l-6,6c-3.422,3.418-3.844,8.703-1.273,12.582l-4.07,4.074c-0.781,0.781-0.781,2.047,0,2.828    C0.977,31.805,1.488,32,2,32s1.023-0.195,1.414-0.586l4.07-4.074C9.152,28.449,11.078,29,13,29c2.475,0,5.117-0.977,7.07-2.93    l5.988-6c3.422-3.418,3.844-8.703,1.273-12.582l4.082-4.074C32.195,2.633,32.195,1.367,31.414,0.586z M24.988,13    c0,1.602-0.625,3.109-1.758,4.242l-5.988,6C16.105,24.375,14.518,25,13,25c-0.906,0-1.773-0.223-2.57-0.602l2.9-2.984    c0.781-0.781,0.781-2.047,0-2.828c-0.697-0.781-1.963-0.781-2.744,0L7.602,21.57C7.219,20.777,7,19.91,7,19    c0-1.602,0.625-3.109,1.758-4.242l5.916-6C15.807,7.625,17.398,7,19,7c0.906,0,1.77,0.223,2.566,0.602l-3.043,3.047    c-0.781,0.781-0.781,2.047,0,2.828c0.391,0.391,0.902,0.586,1.414,0.586c0.508,0,1.02-0.195,1.41-0.586l3.039-3.047    C24.77,11.223,24.988,12.09,24.988,13z"
   id="path8" />
	</g>
</g>
</svg>