<?xml version="1.0" encoding="UTF-8" standalone="no"?>
<!-- Generator: Adobe Illustrator 15.1.0, SVG Export Plug-In . SVG Version: 6.00 Build 0)  -->

<svg
   xmlns:dc="http://purl.org/dc/elements/1.1/"
   xmlns:cc="http://creativecommons.org/ns#"
   xmlns:rdf="http://www.w3.org/1999/02/22-rdf-syntax-ns#"
   xmlns:svg="http://www.w3.org/2000/svg"
   xmlns="http://www.w3.org/2000/svg"
   xmlns:sodipodi="http://sodipodi.sourceforge.net/DTD/sodipodi-0.dtd"
   xmlns:inkscape="http://www.inkscape.org/namespaces/inkscape"
   version="1.1"
   x="0px"
   y="0px"
   width="32px"
   height="32px"
   viewBox="0 0 32 32"
   style="enable-background:new 0 0 32 32;"
   xml:space="preserve"
   id="svg2"
   inkscape:version="0.48.4 r9939"
   sodipodi:docname="magnifying_glass.svg"><metadata
   id="metadata16"><rdf:RDF><cc:Work
       rdf:about=""><dc:format>image/svg+xml</dc:format><dc:type
         rdf:resource="http://purl.org/dc/dcmitype/StillImage" /><dc:title></dc:title></cc:Work></rdf:RDF></metadata><defs
   id="defs14" /><sodipodi:namedview
   pagecolor="#ffffff"
   bordercolor="#666666"
   borderopacity="1"
   objecttolerance="10"
   gridtolerance="10"
   guidetolerance="10"
   inkscape:pageopacity="0"
   inkscape:pageshadow="2"
   inkscape:window-width="678"
   inkscape:window-height="480"
   id="namedview12"
   showgrid="false"
   inkscape:zoom="7.375"
   inkscape:cx="16"
   inkscape:cy="16"
   inkscape:window-x="0"
   inkscape:window-y="0"
   inkscape:window-maximized="0"
   inkscape:current-layer="svg2" />
<g
   id="Layer_1">
</g>
<g
   id="magnifying_x5F_glass"
   style="fill:#84be0e;fill-opacity:1">
	<g
   id="g6"
   style="fill:#84be0e;fill-opacity:1">
		<path
   style="fill:#84be0e;fill-opacity:1"
   d="M11.336,19.738c-1.855,1.852-4.414,4.418-5.688,5.688c0.43,0.43,0.488,0.484,0.922,0.922    c1.27-1.273,3.832-3.836,5.684-5.688C11.934,20.371,11.629,20.066,11.336,19.738z"
   id="path8" />
		<path
   style="fill:#84be0e;fill-opacity:1"
   d="M20.133,0C13.594,0,8.273,5.32,8.273,11.863c0,1.566,0.32,3.051,0.871,4.418L0,25.426L6.57,32    l9.148-9.152c1.367,0.555,2.852,0.875,4.414,0.875c6.543,0,11.867-5.32,11.867-11.859C32,5.32,26.676,0,20.133,0z M20.133,19.727    c-4.332,0-7.863-3.531-7.863-7.863c0-4.336,3.531-7.867,7.863-7.867c4.34,0,7.871,3.531,7.871,7.867    C28.004,16.195,24.473,19.727,20.133,19.727z"
   id="path10" />
	</g>
</g>
</svg>