<?xml version="1.0" encoding="UTF-8" standalone="no"?>
<!-- Generator: Adobe Illustrator 15.1.0, SVG Export Plug-In . SVG Version: 6.00 Build 0)  -->

<svg
   xmlns:dc="http://purl.org/dc/elements/1.1/"
   xmlns:cc="http://creativecommons.org/ns#"
   xmlns:rdf="http://www.w3.org/1999/02/22-rdf-syntax-ns#"
   xmlns:svg="http://www.w3.org/2000/svg"
   xmlns="http://www.w3.org/2000/svg"
   xmlns:sodipodi="http://sodipodi.sourceforge.net/DTD/sodipodi-0.dtd"
   xmlns:inkscape="http://www.inkscape.org/namespaces/inkscape"
   version="1.1"
   x="0px"
   y="0px"
   width="32px"
   height="32px"
   viewBox="0 0 32 32"
   style="enable-background:new 0 0 32 32;"
   xml:space="preserve"
   id="svg2"
   inkscape:version="0.48.4 r9939"
   sodipodi:docname="pin.svg"><metadata
   id="metadata12"><rdf:RDF><cc:Work
       rdf:about=""><dc:format>image/svg+xml</dc:format><dc:type
         rdf:resource="http://purl.org/dc/dcmitype/StillImage" /><dc:title></dc:title></cc:Work></rdf:RDF></metadata><defs
   id="defs10" /><sodipodi:namedview
   pagecolor="#ffffff"
   bordercolor="#666666"
   borderopacity="1"
   objecttolerance="10"
   gridtolerance="10"
   guidetolerance="10"
   inkscape:pageopacity="0"
   inkscape:pageshadow="2"
   inkscape:window-width="678"
   inkscape:window-height="480"
   id="namedview8"
   showgrid="false"
   inkscape:zoom="7.375"
   inkscape:cx="16"
   inkscape:cy="16"
   inkscape:window-x="0"
   inkscape:window-y="0"
   inkscape:window-maximized="0"
   inkscape:current-layer="svg2" />
<g
   id="Layer_1">
</g>
<g
   id="pin"
   style="fill:#84be0e;fill-opacity:1">
	<path
   style="fill:#84be0e;fill-opacity:1"
   d="M32,8c0-4.416-3.586-8-8-8c-2.984,0-5.562,1.658-6.938,4.086c0-0.002,0.004-0.004,0.004-0.006   c-0.367-0.035-0.723-0.111-1.098-0.111c-6.629,0-12,5.371-12,12c0,2.527,0.789,4.867,2.121,6.797L0,32l9.289-6.062   c1.91,1.281,4.207,2.031,6.68,2.031c6.629,0,12-5.371,12-12c0-0.346-0.07-0.67-0.102-1.008C30.32,13.594,32,11.006,32,8z    M15.969,23.969c-4.414,0-8-3.586-8-8c0-4.412,3.586-8,8-8c0.012,0,0.023,0.004,0.031,0.004c0-0.008,0.004-0.014,0.004-0.02   C16.004,7.969,16,7.984,16,8c0,0.695,0.117,1.355,0.281,1.998l-3.172,3.174c-1.562,1.562-1.562,4.094,0,5.656s4.094,1.562,5.656,0   l3.141-3.141c0.66,0.18,1.344,0.305,2.059,0.309C23.949,20.398,20.371,23.969,15.969,23.969z M24,12c-2.203,0-4-1.795-4-4   s1.797-4,4-4s4,1.795,4,4S26.203,12,24,12z"
   id="path6" />
</g>
</svg>