<?xml version="1.0" encoding="UTF-8" standalone="no"?>
<!-- Created with Inkscape (http://www.inkscape.org/) -->

<svg
   xmlns:dc="http://purl.org/dc/elements/1.1/"
   xmlns:cc="http://creativecommons.org/ns#"
   xmlns:rdf="http://www.w3.org/1999/02/22-rdf-syntax-ns#"
   xmlns:svg="http://www.w3.org/2000/svg"
   xmlns="http://www.w3.org/2000/svg"
   version="1.1"
   width="32"
   height="32"
   viewBox="0 0 32 32"
   id="svg2"
   xml:space="preserve"><metadata
   id="metadata24"><rdf:RDF><cc:Work
       rdf:about=""><dc:format>image/svg+xml</dc:format><dc:type
         rdf:resource="http://purl.org/dc/dcmitype/StillImage" /><dc:title></dc:title></cc:Work></rdf:RDF></metadata><defs
   id="defs22" />
<g
   id="Layer_1">
</g>
<g
   id="read_x5F_more"
   style="fill:#84be0e;fill-opacity:1">
	<g
   id="g6"
   style="fill:#84be0e;fill-opacity:1">
		<polygon
   points="0,4 0,0 32,0 32,4 32,4 "
   id="polygon8"
   style="fill:#84be0e;fill-opacity:1" />
		<polygon
   points="0,12 0,8 20,8 20,12 20,12 "
   id="polygon10"
   style="fill:#84be0e;fill-opacity:1" />
		<polygon
   points="0,20.086 0,16.086 32,16.086 32,20.086 32,20.086 "
   id="polygon12"
   style="fill:#84be0e;fill-opacity:1" />
		<circle
   cx="2"
   cy="30"
   r="2"
   id="circle14"
   style="fill:#84be0e;fill-opacity:1" />
		<path
   d="m 12,30 c 0,1.105 -0.898,2 -2,2 -1.109,0 -2.004,-0.895 -2.004,-2 0,-1.105 0.895,-2 2.004,-2 1.102,0 2,0.895 2,2 z"
   id="path16"
   style="fill:#84be0e;fill-opacity:1" />
		<circle
   cx="18"
   cy="30"
   r="2"
   id="circle18"
   style="fill:#84be0e;fill-opacity:1" />
	</g>
</g>
</svg>