<?xml version="1.0" encoding="UTF-8" standalone="no"?>
<svg
   xmlns:dc="http://purl.org/dc/elements/1.1/"
   xmlns:cc="http://creativecommons.org/ns#"
   xmlns:rdf="http://www.w3.org/1999/02/22-rdf-syntax-ns#"
   xmlns:svg="http://www.w3.org/2000/svg"
   xmlns="http://www.w3.org/2000/svg"
   xmlns:sodipodi="http://sodipodi.sourceforge.net/DTD/sodipodi-0.dtd"
   xmlns:inkscape="http://www.inkscape.org/namespaces/inkscape"
   viewBox="0 0 92 92"
   id="svg2"
   version="1.1"
   inkscape:version="0.48.4 r9939"
   width="100%"
   height="100%"
   sodipodi:docname="saveAll.svg">
  <metadata
     id="metadata18">
    <rdf:RDF>
      <cc:Work
         rdf:about="">
        <dc:format>image/svg+xml</dc:format>
        <dc:type
           rdf:resource="http://purl.org/dc/dcmitype/StillImage" />
        <dc:title></dc:title>
      </cc:Work>
    </rdf:RDF>
  </metadata>
  <defs
     id="defs16" />
  <sodipodi:namedview
     pagecolor="#ffffff"
     bordercolor="#666666"
     borderopacity="1"
     objecttolerance="10"
     gridtolerance="10"
     guidetolerance="10"
     inkscape:pageopacity="0"
     inkscape:pageshadow="2"
     inkscape:window-width="1920"
     inkscape:window-height="1138"
     id="namedview14"
     showgrid="true"
     inkscape:zoom="5.4270445"
     inkscape:cx="5.7956753"
     inkscape:cy="35.44972"
     inkscape:window-x="-8"
     inkscape:window-y="-8"
     inkscape:window-maximized="1"
     inkscape:current-layer="svg2"
     showguides="false"
     fit-margin-top="0"
     fit-margin-left="0"
     fit-margin-right="0"
     fit-margin-bottom="0">
    <inkscape:grid
       type="xygrid"
       id="grid3813"
       empspacing="5"
       visible="true"
       enabled="true"
       snapvisiblegridlinesonly="true"
       originx="-5.2812505px"
       originy="31.928481px" />
  </sodipodi:namedview>
  <path
     style="fill:#84be0e;fill-opacity:1;stroke:none"
     d="m 2.6777866,1.9962102 c -1.1737821,0 -2.12500007,0.951218 -2.12500007,2.125 l 0,47.4999998 c 0,1.173782 0.95121797,2.125 2.12500007,2.125 l 45.6249994,0 c 1.173782,0 2.125,-0.951218 2.125,-2.125 l 0,-42.6249996 -7.03125,-7.0000002 -40.7187494,0 z m 8.4999994,2.125 23.25,0 0,13.2499998 c 0,1.35304 -1.17961,2.4375 -2.65625,2.4375 l -17.90625,0 c -1.47664,0 -2.6875,-1.08446 -2.6875,-2.4375 l 0,-13.2499998 z m 4.90625,3.28125 a 1.39915,1.39915 0 0 0 -1.28125,1.4062502 l 0,6.2499996 a 1.39915,1.39915 0 0 0 1.375,1.375 l 3.8125,0 a 1.39915,1.39915 0 0 0 1.375,-1.375 l 0,-6.2499996 a 1.39915,1.39915 0 0 0 -1.375,-1.4062502 l -3.8125,0 a 1.39915,1.39915 0 0 0 -0.09375,0 z M 6.6777866,21.46496 l 37.6562494,0 a 2.03509,2.03509 0 0 1 2.03125,2.03125 l 0,24.5625 a 2.03509,2.03509 0 0 1 -2.03125,2.03125 l -37.6562494,0 a 2.03509,2.03509 0 0 1 -2.0625,-2.03125 l 0,-24.5625 a 2.03509,2.03509 0 0 1 2.0625,-2.03125 z"
     id="path4"
     inkscape:connector-curvature="0" />
  <path
     style="fill:none;stroke:#84be0e;stroke-width:1.04466176px;stroke-linecap:butt;stroke-linejoin:miter;stroke-opacity:1"
     d="m 9.2938676,29.442629 33.8493594,0"
     id="path3763"
     inkscape:connector-curvature="0" />
  <path
     style="fill:none;stroke:#84be0e;stroke-width:1.04466176px;stroke-linecap:butt;stroke-linejoin:miter;stroke-opacity:1"
     d="m 9.2938676,34.442629 33.8493594,0"
     id="path3763-1"
     inkscape:connector-curvature="0" />
  <path
     style="fill:none;stroke:#84be0e;stroke-width:1.04466176px;stroke-linecap:butt;stroke-linejoin:miter;stroke-opacity:1"
     d="m 9.2938676,39.442629 33.8493594,0"
     id="path3763-1-7"
     inkscape:connector-curvature="0" />
  <path
     style="fill:none;stroke:#84be0e;stroke-width:1.04466176px;stroke-linecap:butt;stroke-linejoin:miter;stroke-opacity:1"
     d="m 9.2938676,44.442629 33.8493594,0"
     id="path3763-1-7-4"
     inkscape:connector-curvature="0" />
  <path
     inkscape:connector-curvature="0"
     style="fill:#84be0e;fill-opacity:1;stroke:none"
     d="m 43.215778,37.643441 c -1.173781,0 -2.125,0.951218 -2.125,2.125 l 0,47.5 c 0,1.173782 0.951219,2.125 2.125,2.125 l 45.625,0 c 1.173782,0 2.125,-0.951218 2.125,-2.125 l 0,-42.625 -7.03125,-7 -40.71875,0 z m 8.5,2.125 23.25,0 0,13.25 c 0,1.35304 -1.17961,2.4375 -2.65625,2.4375 l -17.90625,0 c -1.47664,0 -2.6875,-1.08446 -2.6875,-2.4375 l 0,-13.25 z m 4.90625,3.28125 a 1.39915,1.39915 0 0 0 -1.28125,1.40625 l 0,6.25 a 1.39915,1.39915 0 0 0 1.375,1.375 l 3.8125,0 a 1.39915,1.39915 0 0 0 1.375,-1.375 l 0,-6.25 a 1.39915,1.39915 0 0 0 -1.375,-1.40625 l -3.8125,0 a 1.39915,1.39915 0 0 0 -0.09375,0 z m -9.40625,14.0625 37.65625,0 a 2.03509,2.03509 0 0 1 2.03125,2.03125 l 0,24.5625 a 2.03509,2.03509 0 0 1 -2.03125,2.03125 l -37.65625,0 a 2.03509,2.03509 0 0 1 -2.0625,-2.03125 l 0,-24.5625 a 2.03509,2.03509 0 0 1 2.0625,-2.03125 z"
     id="path4-5" />
  <path
     style="fill:none;stroke:#84be0e;stroke-width:1.04466176px;stroke-linecap:butt;stroke-linejoin:miter;stroke-opacity:1"
     d="m 49.144369,64.415404 33.849359,0"
     id="path3763-2"
     inkscape:connector-curvature="0" />
  <path
     style="fill:none;stroke:#84be0e;stroke-width:1.04466176px;stroke-linecap:butt;stroke-linejoin:miter;stroke-opacity:1"
     d="m 49.144369,69.415404 33.849359,0"
     id="path3763-1-3"
     inkscape:connector-curvature="0" />
  <path
     style="fill:none;stroke:#84be0e;stroke-width:1.04466176px;stroke-linecap:butt;stroke-linejoin:miter;stroke-opacity:1"
     d="m 49.144369,74.415404 33.849359,0"
     id="path3763-1-7-1"
     inkscape:connector-curvature="0" />
  <path
     style="fill:none;stroke:#84be0e;stroke-width:1.04466176px;stroke-linecap:butt;stroke-linejoin:miter;stroke-opacity:1"
     d="m 49.144369,79.415404 33.849359,0"
     id="path3763-1-7-4-6"
     inkscape:connector-curvature="0" />
</svg>
