<?xml version="1.0" encoding="UTF-8" standalone="no"?>
<!-- Generator: Adobe Illustrator 15.1.0, SVG Export Plug-In . SVG Version: 6.00 Build 0)  -->

<svg
   xmlns:dc="http://purl.org/dc/elements/1.1/"
   xmlns:cc="http://creativecommons.org/ns#"
   xmlns:rdf="http://www.w3.org/1999/02/22-rdf-syntax-ns#"
   xmlns:svg="http://www.w3.org/2000/svg"
   xmlns="http://www.w3.org/2000/svg"
   xmlns:sodipodi="http://sodipodi.sourceforge.net/DTD/sodipodi-0.dtd"
   xmlns:inkscape="http://www.inkscape.org/namespaces/inkscape"
   version="1.1"
   x="0px"
   y="0px"
   width="32px"
   height="32px"
   viewBox="0 0 32 32"
   style="enable-background:new 0 0 32 32;"
   xml:space="preserve"
   id="svg2"
   inkscape:version="0.48.4 r9939"
   sodipodi:docname="tag_stroke.svg"><metadata
   id="metadata18"><rdf:RDF><cc:Work
       rdf:about=""><dc:format>image/svg+xml</dc:format><dc:type
         rdf:resource="http://purl.org/dc/dcmitype/StillImage" /><dc:title></dc:title></cc:Work></rdf:RDF></metadata><defs
   id="defs16" /><sodipodi:namedview
   pagecolor="#ffffff"
   bordercolor="#666666"
   borderopacity="1"
   objecttolerance="10"
   gridtolerance="10"
   guidetolerance="10"
   inkscape:pageopacity="0"
   inkscape:pageshadow="2"
   inkscape:window-width="678"
   inkscape:window-height="480"
   id="namedview14"
   showgrid="false"
   inkscape:zoom="7.375"
   inkscape:cx="16"
   inkscape:cy="16"
   inkscape:window-x="0"
   inkscape:window-y="0"
   inkscape:window-maximized="0"
   inkscape:current-layer="svg2" />
<g
   id="Layer_1">
</g>
<g
   id="tag_x5F_stroke"
   style="fill:#84be0e;fill-opacity:1">
	<g
   id="g6"
   style="fill:#84be0e;fill-opacity:1">
		<path
   style="fill:#84be0e;fill-opacity:1"
   d="M11.699,8.613c0,1.703-1.383,3.086-3.082,3.086c-1.703,0-3.086-1.383-3.086-3.086    c0-1.699,1.383-3.078,3.086-3.078C10.316,5.535,11.699,6.914,11.699,8.613z"
   id="path8" />
		<g
   id="g10"
   style="fill:#84be0e;fill-opacity:1">
			<path
   style="fill:#84be0e;fill-opacity:1"
   d="M0,0v13.273L18.727,32c0,0,0-10.793,0-13.27c2.477,0,13.273,0,13.273,0L13.273,0H0z M11.797,3.562     c0.773,0.77,7.879,7.883,11.602,11.605c-3.102,0-8.234,0-8.234,0s0,5.133,0,8.227C11.441,19.676,4.336,12.566,3.562,11.801     c0-1.055,0-5.961,0-8.238C5.84,3.562,10.742,3.562,11.797,3.562z"
   id="path12" />
		</g>
	</g>
</g>
</svg>