<?xml version="1.0" encoding="UTF-8" standalone="no"?>
<!-- Created with Inkscape (http://www.inkscape.org/) -->

<svg
   xmlns:osb="http://www.openswatchbook.org/uri/2009/osb"
   xmlns:dc="http://purl.org/dc/elements/1.1/"
   xmlns:cc="http://creativecommons.org/ns#"
   xmlns:rdf="http://www.w3.org/1999/02/22-rdf-syntax-ns#"
   xmlns:svg="http://www.w3.org/2000/svg"
   xmlns="http://www.w3.org/2000/svg"
   xmlns:sodipodi="http://sodipodi.sourceforge.net/DTD/sodipodi-0.dtd"
   xmlns:inkscape="http://www.inkscape.org/namespaces/inkscape"
   width="512"
   height="512"
   id="svg2"
   version="1.1"
   inkscape:version="0.48.4 r9939"
   sodipodi:docname="wand.svg">
  <defs
     id="defs4">
    <linearGradient
       id="linearGradient3862"
       osb:paint="solid">
      <stop
         style="stop-color:#000000;stop-opacity:1;"
         offset="0"
         id="stop3864" />
    </linearGradient>
  </defs>
  <sodipodi:namedview
     id="base"
     pagecolor="#ffffff"
     bordercolor="#666666"
     borderopacity="1.0"
     inkscape:pageopacity="0.0"
     inkscape:pageshadow="2"
     inkscape:zoom="0.70710678"
     inkscape:cx="370.63431"
     inkscape:cy="441.68102"
     inkscape:document-units="px"
     inkscape:current-layer="g3868"
     showgrid="false"
     inkscape:window-width="1920"
     inkscape:window-height="1138"
     inkscape:window-x="-8"
     inkscape:window-y="-8"
     inkscape:window-maximized="1" />
  <metadata
     id="metadata7">
    <rdf:RDF>
      <cc:Work
         rdf:about="">
        <dc:format>image/svg+xml</dc:format>
        <dc:type
           rdf:resource="http://purl.org/dc/dcmitype/StillImage" />
        <dc:title />
      </cc:Work>
    </rdf:RDF>
  </metadata>
  <g
     inkscape:label="Layer 1"
     inkscape:groupmode="layer"
     id="layer1"
     transform="translate(0,-540.36218)">
    <g
       id="g3868"
       transform="matrix(0.99026806,-0.13917311,0.13917311,0.99026806,-138.93016,76.626927)">
      <path
         transform="matrix(0.98480774,-0.17364819,0.17364819,0.98480774,37.20061,398.8957)"
         inkscape:transform-center-y="3.2921128"
         inkscape:transform-center-x="-7.3883888"
         d="M 134.28572,363.79076 85.178617,412.26667 62.659602,336.66137 1.3813438,304.93763 66.3275,260.15745 l 11.235052,-68.08227 62.657948,47.92963 68.2219,-10.3534 -26.22141,74.40231 30.9284,61.68351 z"
         inkscape:randomized="0"
         inkscape:rounded="0"
         inkscape:flatsided="false"
         sodipodi:arg2="1.850381"
         sodipodi:arg1="1.3045443"
         sodipodi:r2="115.83074"
         sodipodi:r1="65.152878"
         sodipodi:cy="300.93362"
         sodipodi:cx="117.14286"
         sodipodi:sides="5"
         id="path2987"
         style="fill:#86c440;fill-opacity:1;fill-rule:nonzero;stroke:none"
         sodipodi:type="star" />
      <path
         inkscape:transform-center-y="-2.2992505"
         inkscape:transform-center-x="-8.1998717"
         d="M 134.28572,363.79076 85.178617,412.26667 62.659602,336.66137 1.3813438,304.93763 66.3275,260.15745 l 11.235052,-68.08227 62.657948,47.92963 68.2219,-10.3534 -26.22141,74.40231 30.9284,61.68351 z"
         inkscape:randomized="0"
         inkscape:rounded="0"
         inkscape:flatsided="false"
         sodipodi:arg2="1.850381"
         sodipodi:arg1="1.3045443"
         sodipodi:r2="115.83074"
         sodipodi:r1="65.152878"
         sodipodi:cy="300.93362"
         sodipodi:cx="117.14286"
         sodipodi:sides="5"
         id="path2987-1"
         style="fill:#86c440;fill-opacity:1;fill-rule:nonzero;stroke:none"
         sodipodi:type="star"
         transform="matrix(0.40635576,-0.23131458,0.23131458,0.40635576,262.93661,603.48851)" />
      <path
         inkscape:transform-center-y="-2.2992505"
         inkscape:transform-center-x="-8.1998717"
         d="M 134.28572,363.79076 85.178617,412.26667 62.659602,336.66137 1.3813438,304.93763 66.3275,260.15745 l 11.235052,-68.08227 62.657948,47.92963 68.2219,-10.3534 -26.22141,74.40231 30.9284,61.68351 z"
         inkscape:randomized="0"
         inkscape:rounded="0"
         inkscape:flatsided="false"
         sodipodi:arg2="1.850381"
         sodipodi:arg1="1.3045443"
         sodipodi:r2="115.83074"
         sodipodi:r1="65.152878"
         sodipodi:cy="300.93362"
         sodipodi:cx="117.14286"
         sodipodi:sides="5"
         id="path2987-1-7"
         style="fill:#86c440;fill-opacity:1;fill-rule:nonzero;stroke:none"
         sodipodi:type="star"
         transform="matrix(0.40635576,-0.23131458,0.23131458,0.40635576,52.78479,771.87783)" />
      <rect
         rx="22.86289"
         transform="matrix(-0.63067581,-0.77604641,0.77604641,-0.63067581,0,0)"
         ry="25.714287"
         y="-305.19937"
         x="-1109.4403"
         height="51.428574"
         width="354.28571"
         id="rect3027"
         style="fill:#86c23a;fill-opacity:1;fill-rule:nonzero;stroke:#86c23a;stroke-width:1;stroke-linecap:round;stroke-linejoin:round;stroke-opacity:1" />
      <path
         inkscape:transform-center-y="-1.380626"
         inkscape:transform-center-x="-4.9237579"
         d="M 134.28572,363.79076 85.178617,412.26667 62.659602,336.66137 1.3813438,304.93763 66.3275,260.15745 l 11.235052,-68.08227 62.657948,47.92963 68.2219,-10.3534 -26.22141,74.40231 30.9284,61.68351 z"
         inkscape:randomized="0"
         inkscape:rounded="0"
         inkscape:flatsided="false"
         sodipodi:arg2="1.850381"
         sodipodi:arg1="1.3045443"
         sodipodi:r2="115.83074"
         sodipodi:r1="65.152878"
         sodipodi:cy="300.93362"
         sodipodi:cx="117.14286"
         sodipodi:sides="5"
         id="path2987-1-4"
         style="fill:#86c440;fill-opacity:1;fill-rule:nonzero;stroke:none"
         sodipodi:type="star"
         transform="matrix(0.24400341,-0.13889688,0.13889688,0.24400341,175.47641,482.36686)" />
      <path
         inkscape:connector-curvature="0"
         id="path3082"
         d="m 456.12546,1039.5849 c -4.93906,-2.4994 -197.80385,-237.74628 -203.20075,-247.85419 -1.58596,-2.97037 -2.88357,-6.88436 -2.88357,-8.69774 0,-6.33109 6.72805,-17.4032 12.83993,-21.13022 7.71443,-4.70425 20.77322,-4.81654 26.38561,-0.22689 3.43148,2.80617 163.0215,198.34363 194.56776,238.39394 7.72344,9.8054 8.50608,11.7733 7.55646,19 -0.82132,6.2504 -2.9471,9.7466 -9.46176,15.5616 -9.05052,8.0785 -16.7192,9.5506 -25.80368,4.9535 z"
         style="fill:#86c440;fill-opacity:1;fill-rule:nonzero;stroke:#86c23a;stroke-width:1;stroke-linecap:square;stroke-linejoin:miter;stroke-miterlimit:4;stroke-opacity:1;stroke-dasharray:none" />
    </g>
  </g>
</svg>
