<?xml version="1.0" encoding="UTF-8" standalone="no"?>
<!-- Created with Inkscape (http://www.inkscape.org/) -->

<svg
   xmlns:dc="http://purl.org/dc/elements/1.1/"
   xmlns:cc="http://creativecommons.org/ns#"
   xmlns:rdf="http://www.w3.org/1999/02/22-rdf-syntax-ns#"
   xmlns:svg="http://www.w3.org/2000/svg"
   xmlns="http://www.w3.org/2000/svg"
   xmlns:sodipodi="http://sodipodi.sourceforge.net/DTD/sodipodi-0.dtd"
   xmlns:inkscape="http://www.inkscape.org/namespaces/inkscape"
   width="24.707157"
   height="25.880537"
   id="svg3776"
   version="1.1"
   inkscape:version="0.48.4 r9939"
   sodipodi:docname="a1.svg">
  <defs
     id="defs3778" />
  <sodipodi:namedview
     id="base"
     pagecolor="#ffffff"
     bordercolor="#666666"
     borderopacity="1.0"
     inkscape:pageopacity="0.0"
     inkscape:pageshadow="2"
     inkscape:zoom="31.678384"
     inkscape:cx="2.8623052"
     inkscape:cy="11.465898"
     inkscape:document-units="px"
     inkscape:current-layer="layer1"
     showgrid="false"
     fit-margin-top="0"
     fit-margin-left="0"
     fit-margin-right="0"
     fit-margin-bottom="0"
     inkscape:window-width="1920"
     inkscape:window-height="1138"
     inkscape:window-x="-8"
     inkscape:window-y="-8"
     inkscape:window-maximized="1" />
  <metadata
     id="metadata3781">
    <rdf:RDF>
      <cc:Work
         rdf:about="">
        <dc:format>image/svg+xml</dc:format>
        <dc:type
           rdf:resource="http://purl.org/dc/dcmitype/StillImage" />
        <dc:title></dc:title>
      </cc:Work>
    </rdf:RDF>
  </metadata>
  <g
     inkscape:label="Layer 1"
     inkscape:groupmode="layer"
     id="layer1"
     transform="translate(-162.92453,-342.50547)">
    <path
       style="font-size:28px;font-style:normal;font-variant:normal;font-weight:normal;font-stretch:normal;text-indent:0;text-align:start;text-decoration:none;line-height:125%;letter-spacing:0px;word-spacing:0px;text-transform:none;direction:ltr;block-progression:tb;writing-mode:lr-tb;text-anchor:start;baseline-shift:baseline;color:#000000;fill:#84be0e;fill-opacity:1;fill-rule:nonzero;stroke:none;stroke-width:1;marker:none;visibility:visible;display:inline;overflow:visible;enable-background:accumulate;font-family:Courier New;-inkscape-font-specification:Courier New"
       d="m 169.71875,349.53125 c -0.80933,10e-6 -1.92026,0.21216 -3.34375,0.59375 -0.0129,0.003 -0.0183,-0.003 -0.0312,0 -0.44342,0.11709 -0.81912,0.2441 -1.09375,0.34375 -0.26654,0.0967 -0.45593,0.14461 -0.65625,0.34375 -0.007,0.007 0.007,0.0238 0,0.0312 -0.17688,0.19027 -0.28126,0.44405 -0.28125,0.6875 -10e-6,0.27055 0.09,0.55046 0.28125,0.75 0.18497,0.19303 0.47915,0.34377 0.75,0.34375 0.26732,3e-5 0.41434,-0.0611 0.71875,-0.15625 1.58765,-0.51127 2.79745,-0.78124 3.59375,-0.78125 1.10025,10e-6 1.85621,0.23016 2.3125,0.59375 0.49738,0.39636 0.68749,0.77569 0.6875,1.25 l 0,1.28125 c -0.49896,-0.089 -0.98613,-0.20021 -1.4375,-0.25 -0.63519,-0.07 -1.23107,-0.0937 -1.78125,-0.0937 -2.03018,10e-6 -3.67014,0.41559 -4.8125,1.34375 -1.10571,0.89839 -1.6875,2.04752 -1.6875,3.3125 0,1.13935 0.44838,2.15979 1.3125,2.9375 0.88416,0.79575 2.10176,1.1875 3.5625,1.1875 1.71822,0 3.32174,-0.68424 4.84375,-1.75 l 0,0.78125 0,0.5 0.5,0 2.6875,0 c 0.34706,0 0.67346,-0.0376 0.9375,-0.28125 0.21002,-0.19389 0.34372,-0.49684 0.34375,-0.78125 -3e-5,-0.28719 -0.12294,-0.61714 -0.34375,-0.8125 -0.26621,-0.23546 -0.59313,-0.28125 -0.9375,-0.28125 l -1.03125,0 0,-7.09375 c -2e-5,-1.05216 -0.48562,-2.02802 -1.375,-2.8125 -0.92198,-0.81319 -2.18726,-1.18749 -3.71875,-1.1875 z m 14.84375,6.375 -0.625,0.1875 -3.4375,1.09375 c -0.17653,0.0636 -0.33476,0.11604 -0.5,0.28125 l -0.0312,0.0312 c -0.1159,0.15068 -0.1875,0.36251 -0.1875,0.5625 0,0.22327 0.0958,0.4708 0.25,0.625 0.14477,0.14479 0.36596,0.25002 0.59375,0.25 0.16453,3e-5 0.26797,-0.0523 0.40625,-0.0937 l 1.78125,-0.5625 0,8.34375 -2.03125,0 c -0.24163,0 -0.49877,0.0554 -0.71875,0.25 -0.17937,0.15867 -0.28125,0.39839 -0.28125,0.625 0,0.22702 0.11267,0.50064 0.28125,0.65625 0.21788,0.20112 0.47435,0.21875 0.71875,0.21875 l 5.84375,0 c 0.2444,0 0.50088,-0.0177 0.71875,-0.21875 0.16856,-0.15561 0.28123,-0.42926 0.28125,-0.65625 -2e-5,-0.22658 -0.1019,-0.46632 -0.28125,-0.625 -0.21997,-0.19457 -0.47713,-0.25 -0.71875,-0.25 l -2.0625,0 0,-10.03125 0,-0.6875 z m -15,0.71875 c 0.64709,10e-6 1.23278,0.0235 1.8125,0.0937 0.44759,0.0543 0.87407,0.18056 1.28125,0.28125 l 0,1.875 c -0.81176,0.75403 -1.6078,1.31385 -2.34375,1.65625 -0.78485,0.36514 -1.63553,0.5625 -2.5625,0.5625 -0.96304,0 -1.60808,-0.22391 -2.03125,-0.59375 -0.45144,-0.39453 -0.65625,-0.81277 -0.65625,-1.375 0,-0.58885 0.25294,-1.06072 0.875,-1.53125 0.82533,-0.63302 2.02897,-0.96874 3.625,-0.96875 z"
       id="text3794"
       inkscape:connector-curvature="0"
       sodipodi:nodetypes="cccccccccccccccsssssccccscccscccsccccccscccccscsssscccscccccccccscsccc" />
    <g
       style="font-size:28px;font-style:normal;font-variant:normal;font-weight:normal;font-stretch:normal;line-height:125%;letter-spacing:0px;word-spacing:0px;fill:#84be0e;fill-opacity:1;stroke:#84be0e;stroke-opacity:1;font-family:Courier New;-inkscape-font-specification:Courier New"
       id="text3794-1">
      <path
         d="m 181.9756,346.06254 0,-2.55052 c -10e-6,-0.18365 0.0355,-0.31399 0.10664,-0.39102 0.0711,-0.077 0.16292,-0.11552 0.27549,-0.11553 0.10664,10e-6 0.19551,0.0385 0.26661,0.11553 0.0711,0.077 0.10663,0.20737 0.10664,0.39102 l 0,2.55052 2.42611,-0.79092 c 0.11256,-0.0355 0.19846,-0.0533 0.25772,-0.0533 0.0948,10e-6 0.17773,0.037 0.24883,0.11109 0.0711,0.0741 0.10663,0.16145 0.10664,0.26216 -1e-5,0.0889 -0.0252,0.1659 -0.0755,0.23106 -0.0504,0.0652 -0.15256,0.12146 -0.30659,0.16885 l -2.42611,0.79093 1.50188,2.06175 c 0.0948,0.13627 0.14218,0.24291 0.14218,0.31992 0,0.10665 -0.037,0.197 -0.11108,0.27105 -0.0741,0.0741 -0.16145,0.11109 -0.26216,0.11109 -0.13035,0 -0.25773,-0.0859 -0.38214,-0.25772 l -1.50187,-2.07064 -1.50188,2.07064 c -0.12442,0.17182 -0.24884,0.25772 -0.37325,0.25772 -0.10664,0 -0.19699,-0.037 -0.27105,-0.11109 -0.0741,-0.074 -0.11109,-0.1644 -0.11108,-0.27105 -1e-5,-0.077 0.0504,-0.18365 0.15107,-0.31992 l 1.50188,-2.06175 -2.43499,-0.79982 c -0.14812,-0.0474 -0.24736,-0.10219 -0.29771,-0.1644 -0.0504,-0.0622 -0.0755,-0.13774 -0.0755,-0.22662 0,-0.10071 0.0355,-0.18809 0.10664,-0.26216 0.0711,-0.074 0.15107,-0.11108 0.23995,-0.11109 0.0652,10e-6 0.15403,0.0178 0.2666,0.0533 z"
         style="font-size:65.00091553%;baseline-shift:super;fill:#84be0e;stroke:#84be0e"
         id="path4354" />
    </g>
  </g>
</svg>
