<?xml version="1.0" encoding="UTF-8" standalone="no"?>
<!-- Created with Inkscape (http://www.inkscape.org/) -->

<svg
   xmlns:dc="http://purl.org/dc/elements/1.1/"
   xmlns:cc="http://creativecommons.org/ns#"
   xmlns:rdf="http://www.w3.org/1999/02/22-rdf-syntax-ns#"
   xmlns:svg="http://www.w3.org/2000/svg"
   xmlns="http://www.w3.org/2000/svg"
   xmlns:sodipodi="http://sodipodi.sourceforge.net/DTD/sodipodi-0.dtd"
   xmlns:inkscape="http://www.inkscape.org/namespaces/inkscape"
   width="24.55608"
   height="25.880537"
   id="svg3776"
   version="1.1"
   inkscape:version="0.48.4 r9939"
   sodipodi:docname="a2.svg">
  <defs
     id="defs3778" />
  <sodipodi:namedview
     id="base"
     pagecolor="#ffffff"
     bordercolor="#666666"
     borderopacity="1.0"
     inkscape:pageopacity="0.0"
     inkscape:pageshadow="2"
     inkscape:zoom="31.678384"
     inkscape:cx="8.7018453"
     inkscape:cy="13.219457"
     inkscape:document-units="px"
     inkscape:current-layer="text3794"
     showgrid="false"
     fit-margin-top="0"
     fit-margin-left="0"
     fit-margin-right="0"
     fit-margin-bottom="0"
     inkscape:window-width="1920"
     inkscape:window-height="1138"
     inkscape:window-x="-8"
     inkscape:window-y="-8"
     inkscape:window-maximized="1" />
  <metadata
     id="metadata3781">
    <rdf:RDF>
      <cc:Work
         rdf:about="">
        <dc:format>image/svg+xml</dc:format>
        <dc:type
           rdf:resource="http://purl.org/dc/dcmitype/StillImage" />
        <dc:title />
      </cc:Work>
    </rdf:RDF>
  </metadata>
  <g
     inkscape:label="Layer 1"
     inkscape:groupmode="layer"
     id="layer1"
     transform="translate(-162.92453,-342.50547)">
    <g
       transform="translate(94.785709,282.36218)"
       style="font-size:28px;font-style:normal;font-variant:normal;font-weight:normal;font-stretch:normal;line-height:125%;letter-spacing:0px;word-spacing:0px;fill:#84be0e;fill-opacity:1;stroke:#84be0e;stroke-opacity:1;font-family:Courier New;-inkscape-font-specification:Courier New"
       id="text3794">
      <path
         d="m 78.373192,79.923828 0,-1.654297 C 76.705213,79.673177 74.923314,80.375 73.027489,80.375 c -1.376307,0 -2.451827,-0.348633 -3.226563,-1.045898 -0.774742,-0.697265 -1.162111,-1.551756 -1.162109,-2.563477 -2e-6,-1.111975 0.510414,-2.082677 1.53125,-2.912109 1.020829,-0.829421 2.511062,-1.244134 4.470703,-1.244141 0.528637,7e-6 1.102855,0.03419 1.722656,0.102539 0.619782,0.06837 1.289703,0.175463 2.009766,0.321289 l 0,-1.859375 c -1.2e-5,-0.628897 -0.291678,-1.175771 -0.875,-1.640625 -0.583344,-0.464833 -1.458343,-0.697254 -2.625,-0.697266 -0.893237,1.2e-5 -2.146491,0.259777 -3.759766,0.779297 -0.291671,0.09116 -0.478519,0.136729 -0.560547,0.136719 -0.145837,1e-5 -0.271162,-0.05468 -0.375976,-0.164062 -0.104821,-0.109365 -0.15723,-0.246084 -0.157227,-0.410157 -3e-6,-0.154937 0.04557,-0.277983 0.136719,-0.36914 0.127601,-0.136708 0.642574,-0.323557 1.544922,-0.560547 1.421868,-0.382801 2.497388,-0.574207 3.226562,-0.574219 1.449209,1.2e-5 2.579417,0.357759 3.390625,1.073242 0.811186,0.715506 1.216784,1.524424 1.216797,2.426758 l 0,7.601563 1.53125,0 c 0.282538,10e-7 0.483058,0.05241 0.601563,0.157226 0.118474,0.104819 0.177719,0.243816 0.177734,0.416992 -1.5e-5,0.164063 -0.05926,0.300782 -0.177734,0.410157 -0.118505,0.109375 -0.319025,0.164062 -0.601563,0.164062 z m 0,-5.714844 c -0.537772,-0.154942 -1.107433,-0.268874 -1.708985,-0.341797 -0.601571,-0.07291 -1.235034,-0.109368 -1.90039,-0.109375 -1.667975,7e-6 -2.971359,0.360032 -3.910156,1.080079 -0.710941,0.537765 -1.06641,1.180342 -1.066407,1.927734 -3e-6,0.692711 0.271156,1.276044 0.813477,1.75 0.542313,0.473959 1.333002,0.710938 2.37207,0.710937 0.993482,10e-7 1.916333,-0.198241 2.768555,-0.594726 0.852204,-0.396483 1.729481,-1.027667 2.631836,-1.893555 z"
         style=""
         id="path4391" />
      <path
         d="m 85.707501,84.777333 5.732014,0 0,-0.293266 c -8e-6,-0.177735 0.03554,-0.305113 0.106642,-0.382134 0.07109,-0.07702 0.162918,-0.115527 0.275492,-0.115529 0.106634,2e-6 0.195502,0.03851 0.266606,0.115529 0.07109,0.07702 0.106633,0.204399 0.106642,0.382134 l 0,1.039761 -7.216117,0 0,-1.101969 c 1.516685,-1.362647 2.991899,-2.748993 4.425648,-4.159043 0.669469,-0.65762 1.128622,-1.140471 1.377461,-1.448555 0.248824,-0.30807 0.419155,-0.579119 0.510993,-0.813146 0.09182,-0.234013 0.137738,-0.469514 0.137746,-0.706504 -8e-6,-0.639844 -0.257726,-1.205639 -0.773155,-1.697388 -0.515444,-0.491728 -1.137522,-0.737597 -1.866237,-0.737608 -0.651707,1.1e-5 -1.229351,0.186635 -1.732935,0.559871 -0.503591,0.373258 -0.829441,0.835373 -0.977553,1.386348 -0.03555,0.142198 -0.07998,0.234029 -0.133302,0.275492 -0.0711,0.05925 -0.154041,0.08888 -0.248832,0.08887 -0.10072,8e-6 -0.185145,-0.03406 -0.253275,-0.102199 -0.06813,-0.06812 -0.102201,-0.149587 -0.102199,-0.244388 -2e-6,-0.28437 0.155518,-0.669466 0.46656,-1.15529 0.311036,-0.485804 0.740567,-0.867938 1.288592,-1.146403 0.548018,-0.278443 1.10937,-0.41767 1.684057,-0.417681 0.93015,1.1e-5 1.729965,0.322899 2.399448,0.968666 0.669467,0.645787 1.004204,1.377469 1.004213,2.19505 -9e-6,0.343633 -0.05629,0.659115 -0.16885,0.946449 -0.112575,0.287348 -0.303642,0.60135 -0.573201,0.942005 -0.269576,0.340669 -0.753908,0.854624 -1.452999,1.541868 -1.753676,1.729975 -3.181494,3.071887 -4.283459,4.02574 z"
         style="font-size:65.00091553%;baseline-shift:sub;fill:#84be0e;fill-opacity:1;stroke:#84be0e;stroke-opacity:1"
         id="path4393" />
    </g>
    <g
       style="font-size:28px;font-style:normal;font-variant:normal;font-weight:normal;font-stretch:normal;line-height:125%;letter-spacing:0px;word-spacing:0px;fill:#84be0e;fill-opacity:1;stroke:#84be0e;stroke-opacity:1;font-family:Courier New;-inkscape-font-specification:Courier New"
       id="text3794-1">
      <path
         d="m 181.9756,346.06254 0,-2.55052 c -10e-6,-0.18365 0.0355,-0.31399 0.10664,-0.39102 0.0711,-0.077 0.16292,-0.11552 0.27549,-0.11553 0.10664,10e-6 0.19551,0.0385 0.26661,0.11553 0.0711,0.077 0.10663,0.20737 0.10664,0.39102 l 0,2.55052 2.42611,-0.79092 c 0.11256,-0.0355 0.19846,-0.0533 0.25772,-0.0533 0.0948,10e-6 0.17773,0.037 0.24883,0.11109 0.0711,0.0741 0.10663,0.16145 0.10664,0.26216 -1e-5,0.0889 -0.0252,0.1659 -0.0755,0.23106 -0.0504,0.0652 -0.15256,0.12146 -0.30659,0.16885 l -2.42611,0.79093 1.50188,2.06175 c 0.0948,0.13627 0.14218,0.24291 0.14218,0.31992 0,0.10665 -0.037,0.197 -0.11108,0.27105 -0.0741,0.0741 -0.16145,0.11109 -0.26216,0.11109 -0.13035,0 -0.25773,-0.0859 -0.38214,-0.25772 l -1.50187,-2.07064 -1.50188,2.07064 c -0.12442,0.17182 -0.24884,0.25772 -0.37325,0.25772 -0.10664,0 -0.19699,-0.037 -0.27105,-0.11109 -0.0741,-0.074 -0.11109,-0.1644 -0.11108,-0.27105 -1e-5,-0.077 0.0504,-0.18365 0.15107,-0.31992 l 1.50188,-2.06175 -2.43499,-0.79982 c -0.14812,-0.0474 -0.24736,-0.10219 -0.29771,-0.1644 -0.0504,-0.0622 -0.0755,-0.13774 -0.0755,-0.22662 0,-0.10071 0.0355,-0.18809 0.10664,-0.26216 0.0711,-0.074 0.15107,-0.11108 0.23995,-0.11109 0.0652,10e-6 0.15403,0.0178 0.2666,0.0533 z"
         style="font-size:65.00091553%;baseline-shift:super;fill:#84be0e;stroke:#84be0e"
         id="path4388" />
    </g>
  </g>
</svg>
