<?xml version="1.0" encoding="UTF-8" standalone="no"?>
<!-- Created with Inkscape (http://www.inkscape.org/) -->

<svg
   xmlns:dc="http://purl.org/dc/elements/1.1/"
   xmlns:cc="http://creativecommons.org/ns#"
   xmlns:rdf="http://www.w3.org/1999/02/22-rdf-syntax-ns#"
   xmlns:svg="http://www.w3.org/2000/svg"
   xmlns="http://www.w3.org/2000/svg"
   xmlns:sodipodi="http://sodipodi.sourceforge.net/DTD/sodipodi-0.dtd"
   xmlns:inkscape="http://www.inkscape.org/namespaces/inkscape"
   version="1.1"
   width="24.929327"
   height="26.147142"
   id="svg3776"
   inkscape:version="0.48.4 r9939"
   sodipodi:docname="a3.svg">
  <sodipodi:namedview
     pagecolor="#ffffff"
     bordercolor="#666666"
     borderopacity="1"
     objecttolerance="10"
     gridtolerance="10"
     guidetolerance="10"
     inkscape:pageopacity="0"
     inkscape:pageshadow="2"
     inkscape:window-width="1920"
     inkscape:window-height="1138"
     id="namedview4404"
     showgrid="false"
     inkscape:zoom="25.528939"
     inkscape:cx="15.034467"
     inkscape:cy="9.0030245"
     inkscape:window-x="-8"
     inkscape:window-y="-8"
     inkscape:window-maximized="1"
     inkscape:current-layer="text3794" />
  <defs
     id="defs3778" />
  <metadata
     id="metadata3781">
    <rdf:RDF>
      <cc:Work
         rdf:about="">
        <dc:format>image/svg+xml</dc:format>
        <dc:type
           rdf:resource="http://purl.org/dc/dcmitype/StillImage" />
        <dc:title />
      </cc:Work>
    </rdf:RDF>
  </metadata>
  <g
     transform="translate(-162.92453,-342.50547)"
     id="layer1">
    <g
       transform="translate(94.785709,282.36218)"
       style="font-size:28px;font-style:normal;font-variant:normal;font-weight:normal;font-stretch:normal;line-height:125%;letter-spacing:0px;word-spacing:0px;fill:#84be0e;fill-opacity:1;stroke:#84be0e;stroke-opacity:1;font-family:Courier New;-inkscape-font-specification:Courier New"
       id="text3794">
      <path
         d="m 78.373192,79.923828 0,-1.654297 C 76.705213,79.673177 74.923314,80.375 73.027489,80.375 c -1.376307,0 -2.451827,-0.348633 -3.226563,-1.045898 -0.774742,-0.697265 -1.162111,-1.551756 -1.162109,-2.563477 -2e-6,-1.111975 0.510414,-2.082677 1.53125,-2.912109 1.020829,-0.829421 2.511062,-1.244134 4.470703,-1.244141 0.528637,7e-6 1.102855,0.03419 1.722656,0.102539 0.619782,0.06837 1.289703,0.175463 2.009766,0.321289 l 0,-1.859375 c -1.2e-5,-0.628897 -0.291678,-1.175771 -0.875,-1.640625 -0.583344,-0.464833 -1.458343,-0.697254 -2.625,-0.697266 -0.893237,1.2e-5 -2.146491,0.259777 -3.759766,0.779297 -0.291671,0.09116 -0.478519,0.136729 -0.560547,0.136719 -0.145837,1e-5 -0.271162,-0.05468 -0.375976,-0.164062 -0.104821,-0.109365 -0.15723,-0.246084 -0.157227,-0.410157 -3e-6,-0.154937 0.04557,-0.277983 0.136719,-0.36914 0.127601,-0.136708 0.642574,-0.323557 1.544922,-0.560547 1.421868,-0.382801 2.497388,-0.574207 3.226562,-0.574219 1.449209,1.2e-5 2.579417,0.357759 3.390625,1.073242 0.811186,0.715506 1.216784,1.524424 1.216797,2.426758 l 0,7.601563 1.53125,0 c 0.282538,10e-7 0.483058,0.05241 0.601563,0.157226 0.118474,0.104819 0.177719,0.243816 0.177734,0.416992 -1.5e-5,0.164063 -0.05926,0.300782 -0.177734,0.410157 -0.118505,0.109375 -0.319025,0.164062 -0.601563,0.164062 z m 0,-5.714844 c -0.537772,-0.154942 -1.107433,-0.268874 -1.708985,-0.341797 -0.601571,-0.07291 -1.235034,-0.109368 -1.90039,-0.109375 -1.667975,7e-6 -2.971359,0.360032 -3.910156,1.080079 -0.710941,0.537765 -1.06641,1.180342 -1.066407,1.927734 -3e-6,0.692711 0.271156,1.276044 0.813477,1.75 0.542313,0.473959 1.333002,0.710938 2.37207,0.710937 0.993482,10e-7 1.916333,-0.198241 2.768555,-0.594726 0.852204,-0.396483 1.729481,-1.027667 2.631836,-1.893555 z"
         style=""
         id="path4407" />
      <path
         d="m 90.453075,79.454114 c 0.687242,0.308083 1.211565,0.730207 1.572972,1.266375 0.361389,0.536177 0.542088,1.094567 0.542097,1.67517 -9e-6,0.894611 -0.362888,1.684058 -1.088638,2.368344 -0.725766,0.684287 -1.633705,1.02643 -2.723818,1.02643 -0.639857,0 -1.303407,-0.136265 -1.990653,-0.408794 -0.687252,-0.27253 -1.167141,-0.550984 -1.439668,-0.835364 -0.08887,-0.09479 -0.133305,-0.195509 -0.133303,-0.302152 -2e-6,-0.09479 0.03406,-0.177736 0.102199,-0.248832 0.06813,-0.07109 0.149593,-0.106641 0.244388,-0.106642 0.09479,10e-7 0.201433,0.04444 0.319926,0.133302 0.918304,0.681326 1.889931,1.021988 2.914885,1.021987 0.86498,10e-7 1.589257,-0.271048 2.172833,-0.813146 0.583562,-0.542095 0.875346,-1.144919 0.875354,-1.808472 -8e-6,-0.444339 -0.143678,-0.879794 -0.431011,-1.306367 -0.287349,-0.426563 -0.700587,-0.762782 -1.239715,-1.008656 -0.539142,-0.245864 -1.084201,-0.368799 -1.635179,-0.368804 -0.177742,5e-6 -0.30512,-0.03406 -0.382135,-0.102199 -0.07702,-0.06813 -0.115533,-0.158476 -0.115529,-0.271049 -4e-6,-0.106636 0.03702,-0.195504 0.111086,-0.266605 0.07405,-0.07109 0.185138,-0.106636 0.333256,-0.106642 l 0.639853,0.0089 c 0.669469,6e-6 1.221934,-0.204391 1.657397,-0.613193 0.435447,-0.408787 0.653175,-0.882751 0.653183,-1.421895 -8e-6,-0.556899 -0.228104,-1.048638 -0.684287,-1.475216 -0.456198,-0.426558 -1.051616,-0.639842 -1.786256,-0.639853 -0.515442,1.1e-5 -0.989406,0.08888 -1.421895,0.266606 -0.432497,0.177747 -0.779083,0.420654 -1.039761,0.728721 -0.0948,0.118501 -0.167371,0.191077 -0.217727,0.217728 -0.05036,0.02667 -0.108126,0.04 -0.173294,0.03999 -0.10072,1e-5 -0.186626,-0.03406 -0.257718,-0.102198 -0.0711,-0.06812 -0.106645,-0.149586 -0.106642,-0.244388 -3e-6,-0.236973 0.257715,-0.536163 0.773155,-0.897572 0.716868,-0.503576 1.531495,-0.75537 2.443882,-0.755381 0.941999,1.1e-5 1.715154,0.282909 2.319466,0.848693 0.604297,0.565806 0.90645,1.239724 0.906458,2.021757 -8e-6,0.497671 -0.14516,0.968674 -0.435455,1.413008 -0.290312,0.444349 -0.71688,0.799823 -1.279706,1.066422 z"
         style="font-size:65.00091553%;baseline-shift:sub;fill:#84be0e;fill-opacity:1;stroke:#84be0e;stroke-opacity:1"
         id="path4409" />
    </g>
    <g
       style="font-size:28px;font-style:normal;font-variant:normal;font-weight:normal;font-stretch:normal;line-height:125%;letter-spacing:0px;word-spacing:0px;fill:#84be0e;fill-opacity:1;stroke:#84be0e;stroke-opacity:1;font-family:Courier New;-inkscape-font-specification:Courier New"
       id="text3794-1">
      <path
         d="m 181.9756,346.06254 0,-2.55052 c -10e-6,-0.18365 0.0355,-0.31399 0.10664,-0.39102 0.0711,-0.077 0.16292,-0.11552 0.27549,-0.11553 0.10664,10e-6 0.19551,0.0385 0.26661,0.11553 0.0711,0.077 0.10663,0.20737 0.10664,0.39102 l 0,2.55052 2.42611,-0.79092 c 0.11256,-0.0355 0.19846,-0.0533 0.25772,-0.0533 0.0948,10e-6 0.17773,0.037 0.24883,0.11109 0.0711,0.0741 0.10663,0.16145 0.10664,0.26216 -1e-5,0.0889 -0.0252,0.1659 -0.0755,0.23106 -0.0504,0.0652 -0.15256,0.12146 -0.30659,0.16885 l -2.42611,0.79093 1.50188,2.06175 c 0.0948,0.13627 0.14218,0.24291 0.14218,0.31992 0,0.10665 -0.037,0.197 -0.11108,0.27105 -0.0741,0.0741 -0.16145,0.11109 -0.26216,0.11109 -0.13035,0 -0.25773,-0.0859 -0.38214,-0.25772 l -1.50187,-2.07064 -1.50188,2.07064 c -0.12442,0.17182 -0.24884,0.25772 -0.37325,0.25772 -0.10664,0 -0.19699,-0.037 -0.27105,-0.11109 -0.0741,-0.074 -0.11109,-0.1644 -0.11108,-0.27105 -1e-5,-0.077 0.0504,-0.18365 0.15107,-0.31992 l 1.50188,-2.06175 -2.43499,-0.79982 c -0.14812,-0.0474 -0.24736,-0.10219 -0.29771,-0.1644 -0.0504,-0.0622 -0.0755,-0.13774 -0.0755,-0.22662 0,-0.10071 0.0355,-0.18809 0.10664,-0.26216 0.0711,-0.074 0.15107,-0.11108 0.23995,-0.11109 0.0652,10e-6 0.15403,0.0178 0.2666,0.0533 z"
         style="font-size:65.00091553%;baseline-shift:super;fill:#84be0e;stroke:#84be0e"
         id="path4412" />
    </g>
  </g>
</svg>
