<?xml version="1.0" encoding="UTF-8" standalone="no"?>
<!-- Generator: Adobe Illustrator 15.1.0, SVG Export Plug-In . SVG Version: 6.00 Build 0)  -->

<svg
   xmlns:dc="http://purl.org/dc/elements/1.1/"
   xmlns:cc="http://creativecommons.org/ns#"
   xmlns:rdf="http://www.w3.org/1999/02/22-rdf-syntax-ns#"
   xmlns:svg="http://www.w3.org/2000/svg"
   xmlns="http://www.w3.org/2000/svg"
   xmlns:sodipodi="http://sodipodi.sourceforge.net/DTD/sodipodi-0.dtd"
   xmlns:inkscape="http://www.inkscape.org/namespaces/inkscape"
   version="1.1"
   x="0px"
   y="0px"
   width="32px"
   height="32px"
   viewBox="0 0 32 32"
   style="enable-background:new 0 0 32 32;"
   xml:space="preserve"
   id="svg2"
   inkscape:version="0.48.4 r9939"
   sodipodi:docname="aperture.svg"><metadata
   id="metadata24"><rdf:RDF><cc:Work
       rdf:about=""><dc:format>image/svg+xml</dc:format><dc:type
         rdf:resource="http://purl.org/dc/dcmitype/StillImage" /><dc:title></dc:title></cc:Work></rdf:RDF></metadata><defs
   id="defs22" /><sodipodi:namedview
   pagecolor="#ffffff"
   bordercolor="#666666"
   borderopacity="1"
   objecttolerance="10"
   gridtolerance="10"
   guidetolerance="10"
   inkscape:pageopacity="0"
   inkscape:pageshadow="2"
   inkscape:window-width="656"
   inkscape:window-height="480"
   id="namedview20"
   showgrid="false"
   inkscape:zoom="7.375"
   inkscape:cx="16"
   inkscape:cy="16"
   inkscape:window-x="0"
   inkscape:window-y="0"
   inkscape:window-maximized="0"
   inkscape:current-layer="svg2" />
<g
   id="Layer_1">
</g>
<g
   id="aperture"
   style="fill:#84be0e;fill-opacity:1">
	<g
   id="g6"
   style="fill:#84be0e;fill-opacity:1">
		<path
   style="fill:#84be0e;fill-opacity:1"
   d="M21.172,13.98l5.691-9.664C24.008,1.658,20.211,0,16,0c-0.998,0-1.965,0.119-2.912,0.293    L21.172,13.98z"
   id="path8" />
		<path
   style="fill:#84be0e;fill-opacity:1"
   d="M19.951,20h11.482C31.766,18.715,32,17.391,32,16c0-3.873-1.43-7.377-3.723-10.145L19.951,20z"
   id="path10" />
		<path
   style="fill:#84be0e;fill-opacity:1"
   d="M16.5,10l-5.408-9.152C6.592,2.307,2.953,5.646,1.188,10H16.5z"
   id="path12" />
		<path
   style="fill:#84be0e;fill-opacity:1"
   d="M15.633,22l5.391,9.117c4.449-1.484,8.039-4.801,9.789-9.117H15.633z"
   id="path14" />
		<path
   style="fill:#84be0e;fill-opacity:1"
   d="M12.105,12H0.566C0.232,13.285,0,14.609,0,16c0,3.891,1.445,7.41,3.756,10.188L12.105,12z"
   id="path16" />
		<path
   style="fill:#84be0e;fill-opacity:1"
   d="M10.918,17.961l-5.744,9.758C8.027,30.352,11.809,32,16,32c1.041,0,2.055-0.117,3.041-0.305    L10.918,17.961z"
   id="path18" />
	</g>
</g>
</svg>