<?xml version="1.0" encoding="UTF-8" standalone="no"?>
<!-- Generator: Adobe Illustrator 15.1.0, SVG Export Plug-In . SVG Version: 6.00 Build 0)  -->

<svg
   xmlns:dc="http://purl.org/dc/elements/1.1/"
   xmlns:cc="http://creativecommons.org/ns#"
   xmlns:rdf="http://www.w3.org/1999/02/22-rdf-syntax-ns#"
   xmlns:svg="http://www.w3.org/2000/svg"
   xmlns="http://www.w3.org/2000/svg"
   xmlns:sodipodi="http://sodipodi.sourceforge.net/DTD/sodipodi-0.dtd"
   xmlns:inkscape="http://www.inkscape.org/namespaces/inkscape"
   version="1.1"
   x="0px"
   y="0px"
   width="32px"
   height="32px"
   viewBox="0 0 32 32"
   style="enable-background:new 0 0 32 32;"
   xml:space="preserve"
   id="svg2"
   inkscape:version="0.48.4 r9939"
   sodipodi:docname="article.svg"><metadata
   id="metadata22"><rdf:RDF><cc:Work
       rdf:about=""><dc:format>image/svg+xml</dc:format><dc:type
         rdf:resource="http://purl.org/dc/dcmitype/StillImage" /><dc:title></dc:title></cc:Work></rdf:RDF></metadata><defs
   id="defs20" /><sodipodi:namedview
   pagecolor="#ffffff"
   bordercolor="#666666"
   borderopacity="1"
   objecttolerance="10"
   gridtolerance="10"
   guidetolerance="10"
   inkscape:pageopacity="0"
   inkscape:pageshadow="2"
   inkscape:window-width="678"
   inkscape:window-height="480"
   id="namedview18"
   showgrid="false"
   inkscape:zoom="7.375"
   inkscape:cx="16"
   inkscape:cy="16"
   inkscape:window-x="0"
   inkscape:window-y="0"
   inkscape:window-maximized="0"
   inkscape:current-layer="svg2" />
<g
   id="Layer_1"
   style="fill:#84be0e;fill-opacity:1">
</g>
<g
   id="article"
   style="fill:#84be0e;fill-opacity:1">
	<g
   id="g6"
   style="fill:#84be0e;fill-opacity:1">
		<polygon
   style="fill:#84be0e;fill-opacity:1"
   points="32,4 0,4 0,0 32,0 32,4   "
   id="polygon8" />
		<polygon
   style="fill:#84be0e;fill-opacity:1"
   points="20,12 0,12 0,8 20,8 20,12   "
   id="polygon10" />
		<polygon
   style="fill:#84be0e;fill-opacity:1"
   points="32,24 0,24 0,20 32,20 32,24   "
   id="polygon12" />
		<polygon
   style="fill:#84be0e;fill-opacity:1"
   points="24,32 0,32 0,28 24,28 24,32   "
   id="polygon14" />
		<path
   style="fill:#84be0e;fill-opacity:1"
   d="M32,30c0,1.105-0.898,2-2,2c-1.109,0-2.004-0.895-2.004-2s0.895-2,2.004-2    C31.102,28,32,28.895,32,30z"
   id="path16" />
	</g>
</g>
</svg>