<?xml version="1.0" encoding="UTF-8" standalone="no"?>
<!-- Created with Inkscape (http://www.inkscape.org/) -->

<svg
   xmlns:dc="http://purl.org/dc/elements/1.1/"
   xmlns:cc="http://creativecommons.org/ns#"
   xmlns:rdf="http://www.w3.org/1999/02/22-rdf-syntax-ns#"
   xmlns:svg="http://www.w3.org/2000/svg"
   xmlns="http://www.w3.org/2000/svg"
   version="1.1"
   width="250"
   height="250"
   id="svg3776">
  <defs
     id="defs3778" />
  <metadata
     id="metadata3781">
    <rdf:RDF>
      <cc:Work
         rdf:about="">
        <dc:format>image/svg+xml</dc:format>
        <dc:type
           rdf:resource="http://purl.org/dc/dcmitype/StillImage" />
        <dc:title></dc:title>
      </cc:Work>
    </rdf:RDF>
  </metadata>
  <g
     transform="translate(-125.51219,-253.30483)"
     id="layer1">
    <path
       d="m 245.71428,328.07648 a 50,52.857143 0 1 1 -100,0 50,52.857143 0 1 1 100,0 z"
       transform="matrix(1,0,0,0.94594594,57.476393,68.100454)"
       id="path3784-1"
       style="fill:#84be0e;fill-opacity:0.96078431;fill-rule:nonzero;stroke:none" />
    <path
       d="m 245.71428,328.07648 a 50,52.857143 0 1 1 -100,0 50,52.857143 0 1 1 100,0 z"
       transform="matrix(1.4264797,0,0,1.3493726,-26.313047,-63.358136)"
       id="path3784-1-7"
       style="fill:none;stroke:#84be0e;stroke-width:3.6038878;stroke-miterlimit:4;stroke-opacity:0.96078431;stroke-dasharray:none" />
    <path
       d="m 245.71428,328.07648 a 50,52.857143 0 1 1 -100,0 50,52.857143 0 1 1 100,0 z"
       transform="matrix(1.9019729,0,0,1.7991635,-120.26804,-213.22994)"
       id="path3784-1-7-4"
       style="fill:none;stroke:#84be0e;stroke-width:2.70291591;stroke-miterlimit:4;stroke-opacity:0.96078431;stroke-dasharray:none" />
    <path
       d="m 245.71428,328.07648 a 50,52.857143 0 1 1 -100,0 50,52.857143 0 1 1 100,0 z"
       transform="matrix(2.3774662,0,0,2.2489544,-212.32886,-359.79575)"
       id="path3784-1-7-4-0"
       style="fill:none;stroke:#84be0e;stroke-width:2.16233253;stroke-miterlimit:4;stroke-opacity:0.96078431;stroke-dasharray:none" />
  </g>
</svg>
