<?xml version="1.0" encoding="UTF-8" standalone="no"?>
<!-- Generator: Adobe Illustrator 15.1.0, SVG Export Plug-In . SVG Version: 6.00 Build 0)  -->

<svg
   xmlns:dc="http://purl.org/dc/elements/1.1/"
   xmlns:cc="http://creativecommons.org/ns#"
   xmlns:rdf="http://www.w3.org/1999/02/22-rdf-syntax-ns#"
   xmlns:svg="http://www.w3.org/2000/svg"
   xmlns="http://www.w3.org/2000/svg"
   xmlns:sodipodi="http://sodipodi.sourceforge.net/DTD/sodipodi-0.dtd"
   xmlns:inkscape="http://www.inkscape.org/namespaces/inkscape"
   version="1.1"
   x="0px"
   y="0px"
   width="28px"
   height="32px"
   viewBox="0 0 28 32"
   xml:space="preserve"
   id="svg3029"
   inkscape:version="0.48.4 r9939"
   sodipodi:docname="book.svg"
   style="enable-background:new 0 0 28 32;"><metadata
   id="metadata3039"><rdf:RDF><cc:Work
       rdf:about=""><dc:format>image/svg+xml</dc:format><dc:type
         rdf:resource="http://purl.org/dc/dcmitype/StillImage" /><dc:title></dc:title></cc:Work></rdf:RDF></metadata><defs
   id="defs3037" /><sodipodi:namedview
   pagecolor="#ffffff"
   bordercolor="#666666"
   borderopacity="1"
   objecttolerance="10"
   gridtolerance="10"
   guidetolerance="10"
   inkscape:pageopacity="0"
   inkscape:pageshadow="2"
   inkscape:window-width="1920"
   inkscape:window-height="1138"
   id="namedview3035"
   showgrid="false"
   inkscape:zoom="20.85965"
   inkscape:cx="21.019711"
   inkscape:cy="14.358481"
   inkscape:window-x="-8"
   inkscape:window-y="-8"
   inkscape:window-maximized="1"
   inkscape:current-layer="svg3029" />
<g
   id="Layer_1"
   style="stroke-width:0.271;stroke-miterlimit:2.29999995;stroke-dasharray:none">
</g>
<g
   id="book"
   style="stroke-width:0.27100000000000002;stroke-miterlimit:2.29999995000000010;stroke-dasharray:none;stroke:#84be0e;stroke-opacity:1">
	<path
   style="fill:#4E4E50;stroke-width:0.27100000000000002;stroke-miterlimit:2.29999995000000010;stroke-dasharray:none;stroke:#84be0e;stroke-opacity:1"
   d="M4,0C1.791,0,0,1.789,0,4v24c0,2.211,1.791,4,4,4h24V0H4z M24,28H8V4h3.984v8.039l4-4l4.031,4.031V4   H24V28z"
   id="path3033" />
</g>
<path
   style="fill:#84be0e;fill-opacity:1;fill-rule:nonzero;stroke:#84be0e;stroke-width:0.27100000000000002;stroke-linecap:square;stroke-linejoin:bevel;stroke-miterlimit:2.29999995000000010;stroke-opacity:1;stroke-dasharray:none;stroke-dashoffset:0"
   d="M 3.4587855,31.861805 C 2.1789033,31.645628 1.1852264,30.943052 0.55815298,29.810922 l -0.40222078,-0.726176 0,-13.084746 0,-13.0847458 0.42017408,-0.7457627 C 1.0267059,1.3697268 1.9533666,0.56620019 2.7764087,0.26156412 3.1795163,0.11236014 5.622621,0.06890408 15.579661,0.03382978 l 12.305085,-0.04334543 0,16.00475765 0,16.004758 -11.898305,-0.01595 C 9.4423729,31.975279 3.804928,31.920268 3.4587855,31.861805 l 0,0 z M 24.088136,16 l 0,-12.0677966 -2.101695,0 -2.101695,0 0,3.9643478 0,3.9643478 -1.966102,-1.9625939 -1.966102,-1.9625939 -1.966101,1.9625939 -1.966102,1.9625939 0,-3.9643478 0,-3.9643478 -2.0338983,0 -2.0338983,0 0,12.0677966 0,12.067797 8.0677966,0 8.067797,0 0,-12.067797 z"
   id="path3041"
   inkscape:connector-curvature="0" /><path
   style="fill:#84be0e;fill-opacity:1;fill-rule:nonzero;stroke:#84be0e;stroke-width:0.01300000000000000;stroke-linecap:square;stroke-linejoin:bevel;stroke-miterlimit:2.29999995000000010;stroke-opacity:1;stroke-dasharray:none;stroke-dashoffset:0"
   d="M 11.296322,31.802188 C 4.1710686,31.765736 3.5996706,31.750531 3.0120288,31.58174 1.8998225,31.262276 1.199457,30.650687 0.51707492,29.403039 L 0.31819,29.039403 l 0,-13.045727 0,-13.0457276 0.26944477,-0.4691058 C 0.98469202,1.7875622 1.33873,1.3813014 1.9422204,0.92444741 2.4215009,0.56162264 2.7693533,0.40964239 3.2439301,0.35571728 3.9608772,0.27425215 9.0509209,0.21650883 18.523193,0.1823837 l 9.216358,-0.0332032 0,15.8514295 0,15.85143 -5.045626,-0.0087 c -2.775095,-0.0048 -7.904016,-0.0233 -11.397603,-0.04117 z m 12.886123,-3.651073 c 0.04444,-0.04444 0.05753,-2.805749 0.05753,-12.136889 0,-11.1726994 -0.006,-12.0859423 -0.07934,-12.1670308 -0.07455,-0.082374 -0.205344,-0.087669 -2.165485,-0.087669 -1.873906,0 -2.095065,0.00807 -2.173815,0.079339 -0.08352,0.075588 -0.08767,0.2585794 -0.08767,3.8708766 l 0,3.7915372 L 17.89975,9.6678292 C 16.468488,8.2369289 16.039623,7.834379 15.946448,7.834379 c -0.09318,0 -0.522039,0.4025499 -1.953301,1.8334502 l -1.833915,1.8334498 0,-3.8133487 c 0,-2.9020191 -0.01375,-3.8270974 -0.05753,-3.8708766 -0.04294,-0.042938 -0.573902,-0.057527 -2.093576,-0.057527 -1.8272898,0 -2.045037,0.00813 -2.1237171,0.079339 -0.08449,0.076463 -0.087669,0.5175543 -0.087669,12.1670303 0,9.337619 0.013088,12.10078 0.057527,12.145219 0.04429,0.04429 1.9229043,0.05753 8.1640871,0.05753 6.241183,0 8.119797,-0.01324 8.164088,-0.05753 z"
   id="path3817"
   inkscape:connector-curvature="0" /></svg>