<?xml version="1.0" encoding="UTF-8" standalone="no"?>
<!-- Generator: Adobe Illustrator 15.1.0, SVG Export Plug-In . SVG Version: 6.00 Build 0)  -->

<svg
   xmlns:dc="http://purl.org/dc/elements/1.1/"
   xmlns:cc="http://creativecommons.org/ns#"
   xmlns:rdf="http://www.w3.org/1999/02/22-rdf-syntax-ns#"
   xmlns:svg="http://www.w3.org/2000/svg"
   xmlns="http://www.w3.org/2000/svg"
   xmlns:sodipodi="http://sodipodi.sourceforge.net/DTD/sodipodi-0.dtd"
   xmlns:inkscape="http://www.inkscape.org/namespaces/inkscape"
   version="1.1"
   x="0px"
   y="0px"
   width="32px"
   height="25.754px"
   viewBox="0 0 32 25.754"
   style="enable-background:new 0 0 32 25.754;"
   xml:space="preserve"
   id="svg3835"
   inkscape:version="0.48.4 r9939"
   sodipodi:docname="check.svg"><metadata
   id="metadata3847"><rdf:RDF><cc:Work
       rdf:about=""><dc:format>image/svg+xml</dc:format><dc:type
         rdf:resource="http://purl.org/dc/dcmitype/StillImage" /><dc:title></dc:title></cc:Work></rdf:RDF></metadata><defs
   id="defs3845" /><sodipodi:namedview
   pagecolor="#ffffff"
   bordercolor="#666666"
   borderopacity="1"
   objecttolerance="10"
   gridtolerance="10"
   guidetolerance="10"
   inkscape:pageopacity="0"
   inkscape:pageshadow="2"
   inkscape:window-width="1920"
   inkscape:window-height="1138"
   id="namedview3843"
   showgrid="false"
   inkscape:zoom="9.1636252"
   inkscape:cx="-1.0238303"
   inkscape:cy="12.877"
   inkscape:window-x="-8"
   inkscape:window-y="-8"
   inkscape:window-maximized="1"
   inkscape:current-layer="svg3835" />
<g
   id="Layer_1">
</g>
<g
   id="check"
   style="fill:#84be0e;fill-opacity:1;stroke:none;stroke-opacity:1">
	<g
   id="g3839"
   style="fill:#84be0e;fill-opacity:1;stroke:none;stroke-opacity:1">
		<polygon
   style="fill:#84be0e;fill-opacity:1;stroke:none;stroke-opacity:1"
   points="11.941,25.754 0,13.812 5.695,8.117 11.941,14.363 26.305,0 32,5.695 11.941,25.754   "
   id="polygon3841" />
	</g>
</g>
<path
   style="fill:#84be0e;fill-opacity:1;fill-rule:nonzero;stroke:none;stroke-width:0.00141865000000000;stroke-linecap:square;stroke-linejoin:bevel;stroke-miterlimit:2.29999995000000010;stroke-opacity:1;stroke-dasharray:none;stroke-dashoffset:0"
   d="M 5.9493354,19.708301 0.05717194,13.815378 2.8666467,11.005904 5.6761215,8.1964295 8.7598948,11.278779 c 1.6960752,1.695293 3.1324242,3.08235 3.1918852,3.08235 0.05946,0 3.312386,-3.203994 7.22872,-7.1199872 l 7.12061,-7.11998698 2.783276,2.78167148 2.783277,2.7816715 -9.957916,9.9583612 c -5.476854,5.4771 -9.982741,9.958363 -10.013082,9.958363 -0.03034,0 -2.7066396,-2.651815 -5.9473296,-5.892921 z"
   id="path3849"
   inkscape:connector-curvature="0" /><path
   style="fill:#84be0e;fill-opacity:1;fill-rule:nonzero;stroke:none;stroke-width:0.00141865000000000;stroke-linecap:square;stroke-linejoin:bevel;stroke-miterlimit:2.29999995000000010;stroke-opacity:1;stroke-dasharray:none;stroke-dashoffset:0"
   d="M 6.0089368,19.667927 0.12200442,13.832806 2.9039917,11.04136 5.6859792,8.2499133 8.7429982,11.305521 c 1.6813608,1.680584 3.1259118,3.055608 3.2101128,3.055608 0.0842,0 3.350797,-3.191054 7.259098,-7.0912301 l 7.106004,-7.0912297 2.698046,2.6996659 c 1.483925,1.4848162 2.698046,2.7486099 2.698046,2.8084305 0,0.05982 -2.271208,2.3675043 -5.047129,5.1281864 -2.775921,2.760682 -7.235069,7.194873 -9.909218,9.853759 l -4.862089,4.834336 -5.8869322,-5.83512 0,0 z"
   id="path4359"
   inkscape:connector-curvature="0" /><path
   style="fill:#84be0e;fill-opacity:1;fill-rule:nonzero;stroke:none;stroke-width:0.00141865000000000;stroke-linecap:square;stroke-linejoin:bevel;stroke-miterlimit:2.29999995000000010;stroke-opacity:1;stroke-dasharray:none;stroke-dashoffset:0"
   d="M 6.0571931,19.617791 0.23113153,13.829313 2.9517442,11.100976 5.672357,8.3726386 8.7149874,11.366884 c 1.6734466,1.646835 3.1168586,2.994245 3.2075816,2.994245 0.198752,0 2.112693,-1.852896 9.100887,-8.8106128 l 5.296274,-5.2731756 2.655373,2.6756031 2.655373,2.6756031 -0.769504,0.8469414 C 30.164968,7.2415334 27.181582,10.221195 15.660379,21.657107 l -3.777124,3.749162 -5.8260619,-5.788478 0,0 z"
   id="path4361"
   inkscape:connector-curvature="0" /><path
   style="fill:#84be0e;fill-opacity:1;fill-rule:nonzero;stroke:none;stroke-width:0.00141865000000000;stroke-linecap:square;stroke-linejoin:bevel;stroke-miterlimit:2.29999995000000010;stroke-opacity:1;stroke-dasharray:none;stroke-dashoffset:0"
   d="M 6.0697525,19.544986 0.34148376,13.815938 3.0134659,11.142286 5.6854481,8.4686334 7.4325016,10.194254 c 2.7344504,2.700905 4.3107974,4.166875 4.4806094,4.166875 0.245183,0 0.99584,-0.715185 7.914408,-7.5404071 l 6.501133,-6.41342023 2.603242,2.60493793 2.603243,2.6049381 -0.744802,0.8321834 C 30.024465,7.3050875 12.023043,25.19754 11.87856,25.246656 c -0.0443,0.01506 -2.6582596,-2.550693 -5.8088075,-5.70167 z"
   id="path4363"
   inkscape:connector-curvature="0" /><path
   style="fill:#84be0e;fill-opacity:1;fill-rule:nonzero;stroke:none;stroke-width:0.00141865000000000;stroke-linecap:square;stroke-linejoin:bevel;stroke-miterlimit:2.29999995000000010;stroke-opacity:1;stroke-dasharray:none;stroke-dashoffset:0"
   d="M 6.1512019,19.506707 0.44938577,13.822167 3.0684366,11.208947 5.6874874,8.5957262 8.6200969,11.425163 c 1.6129351,1.55619 3.0499021,2.858875 3.1932581,2.894855 0.203371,0.05104 0.386265,-0.04262 0.832276,-0.426216 0.314395,-0.2704 3.51806,-3.389585 7.119255,-6.931524 l 6.547627,-6.43988841 2.537205,2.52613231 c 1.395463,1.3893727 2.537206,2.5681511 2.537206,2.6195075 0,0.1350494 -4.498825,4.6585916 -12.522412,12.5912146 l -7.011494,6.932002 -5.7018161,-5.684539 0,0 z"
   id="path4365"
   inkscape:connector-curvature="0" /></svg>