<?xml version="1.0" encoding="UTF-8" standalone="no"?>
<svg
   xmlns:dc="http://purl.org/dc/elements/1.1/"
   xmlns:cc="http://creativecommons.org/ns#"
   xmlns:rdf="http://www.w3.org/1999/02/22-rdf-syntax-ns#"
   xmlns:svg="http://www.w3.org/2000/svg"
   xmlns="http://www.w3.org/2000/svg"
   xmlns:sodipodi="http://sodipodi.sourceforge.net/DTD/sodipodi-0.dtd"
   xmlns:inkscape="http://www.inkscape.org/namespaces/inkscape"
   id="svg8087"
   viewBox="0 0 414.43 271.06"
   version="1.1"
   inkscape:version="0.48.4 r9939"
   width="100%"
   height="100%"
   sodipodi:docname="Icon_set_graph.svg">
  <defs
     id="defs121" />
  <sodipodi:namedview
     pagecolor="#ffffff"
     bordercolor="#666666"
     borderopacity="1"
     objecttolerance="10"
     gridtolerance="10"
     guidetolerance="10"
     inkscape:pageopacity="0"
     inkscape:pageshadow="2"
     inkscape:window-width="1920"
     inkscape:window-height="1138"
     id="namedview119"
     showgrid="false"
     inkscape:zoom="2.306803"
     inkscape:cx="277.52624"
     inkscape:cy="138.45801"
     inkscape:window-x="-8"
     inkscape:window-y="-8"
     inkscape:window-maximized="1"
     inkscape:current-layer="g5744" />
  <g
     id="g5744">
    <path
       inkscape:connector-curvature="0"
       d="m 268.03693,189.47797 c 9.59174,33.69524 -9.77941,68.83345 -43.2754,78.48314 -33.49402,9.65965 -68.42531,-9.8389 -78.02,-43.53016 -3.16656,-11.12054 -3.25131,-22.90133 -0.24478,-34.06768"
       style="color:#000000;fill:#84be0e;stroke:#84be0e;stroke-width:0.99182188999999998;stroke-linecap:round;stroke-linejoin:round;stroke-dasharray:2.97546568000000010, 0.99182188999999998;stroke-opacity:1;fill-opacity:1"
       id="path8055" />
    <path
       style="fill:#ffffff;stroke:#ffffff;stroke-width:0.53512998000000001pt;stroke-opacity:1;fill-opacity:1"
       inkscape:connector-curvature="0"
       d="m 144.5171,195.047 v 22.101 m 9.8811,-27.759 v 52.952 m 9.8811,-52.952 v 64.268 m 9.8811,-64.268 v 71.273 m 9.8811,-71.273 v 75.719 m 9.8811,-75.719 v 79.222 m 9.8811,-79.222 v 79.896 m 9.8811,-79.896 v 79.761 m 9.8811,-79.761 v 77.74 m 9.8811,-77.74 v 74.641 m 9.8811,-74.641 v 68.849 m 9.8811,-68.849 v 60.226 m 9.8811,-60.226 v 46.35 m -116.54,-45.762 h 120.92 m -122.95,5.9145 h 124.44 m -124.44,5.9145 h 126.48 m -126.48,5.916 h 125.53 m -125.53,5.9145 h 125.26 m -125.26,5.9145 h 124.31 m -122.28,5.9144 h 120.78 m -118.21,5.9145 h 116.44 m -113.73,5.9144 h 110.75 m -106.95,5.9144 h 102.89 m -97.733,5.9145 h 93.529 m -88.241,5.9144 h 82.411 m -74.14,5.9144 h 66.275"
       id="path8043" />
    <path
       id="path3160"
       d="m 127.02695,64.011052 a 63.015474,63.015402 0 1 1 -126.0289752,0 63.015474,63.015402 0 1 1 126.0289752,0 z"
       inkscape:connector-curvature="0"
       style="fill:none;stroke:#84be0e;stroke-width:1.96927655000000000;stroke-linecap:round;stroke-linejoin:round;stroke-opacity:1" />
    <path
       id="path4024"
       d="M 126.541,71.416 86.416,28.01 50.01,73.01 29.198,48.01 1.386,70.291 a 63.015,63.015 0 0 0 125.16,1.125 z"
       inkscape:connector-curvature="0"
       style="fill:#84be0e;stroke:#84be0e;stroke-opacity:1;fill-opacity:1" />
    <path
       id="path4076"
       style="color:#000000;fill:#84be0e;stroke:#84be0e;stroke-opacity:1;fill-opacity:1"
       d="m 147.88,43.006 a 63.015,63.015 0 0 0 -3.66,21 63.015,63.015 0 0 0 24,49.406 v -70.41 h -20.344 z m 77.625,10 v 71.25 a 63.015,63.015 0 0 0 25.84,-15.28 V 53.007 h -25.844 z m -55.406,10 v 51.906 a 63.015,63.015 0 0 0 25.844,11.031 V 63.005 h -25.844 z m 83.12,10 v 33.969 A 63.015,63.015 0 0 0 269.5,73.005 h -16.281 z m -55.438,15 v 38.25 a 63.015,63.015 0 0 0 25.875,-1.4375 v -36.812 h -25.875 z"
       inkscape:connector-curvature="0" />
    <path
       id="path3160-6"
       d="m 270.23595,64.011052 a 63.015474,63.015402 0 1 1 -126.02898,0 63.015474,63.015402 0 1 1 126.02898,0 z"
       inkscape:connector-curvature="0"
       style="fill:none;stroke:#84be0e;stroke-width:1.96927655000000000;stroke-linecap:round;stroke-linejoin:round;stroke-opacity:1" />
    <path
       id="path3160-1"
       d="m 270.13595,207.03305 a 63.015474,63.015402 0 1 1 -126.02898,0 63.015474,63.015402 0 1 1 126.02898,0 z"
       inkscape:connector-curvature="0"
       style="fill:none;stroke:#84be0e;stroke-width:1.96927655000000000;stroke-linecap:round;stroke-linejoin:round;stroke-opacity:1" />
    <path
       id="path8053"
       d="m 270.13595,207.03305 a 63.015474,63.015402 0 1 1 -126.02898,0 63.015474,63.015402 0 1 1 126.02898,0 z"
       inkscape:connector-curvature="0"
       style="fill:none;stroke:#84be0e;stroke-width:1.96927655000000000;stroke-linecap:round;stroke-linejoin:round;stroke-opacity:1" />
    <path
       inkscape:connector-curvature="0"
       d="m 62.292,181.028 c -8.586,0.30397 -17.039,1.813 -25,4.4375 l 27.176,62.732 z m 8.0312,6.875 -4.1091,60.294 49.265,-41.763 c -11.55,-11.433 -27.888,-18.155 -45.158,-18.532 z m -28.843,18.531 c -3.18,1.5249 -6.1972,3.3497 -9,5.4688 -10.662,8.0608 -17.109,19.379 -19.375,31.406 0.23597,0.35659 0.47557,0.71078 0.71875,1.0625 1.2619,1.6804 2.6079,3.2977 4.0312,4.8438 1.4144,1.5524 2.9065,3.034 4.4688,4.4375 1.5678,1.4037 3.2059,2.7289 4.9062,3.9688 1.7016,1.2329 3.465,2.3807 5.2812,3.4375 1.8044,1.0603 3.6616,2.0307 5.5625,2.9062 1.9181,0.86834 3.8797,1.6405 5.875,2.3125 1.9899,0.68407 4.0141,1.2684 6.0625,1.75 2.0421,0.47765 4.108,0.85327 6.1875,1.125 2.0837,0.27125 4.1809,0.4382 6.2812,0.5 2.0946,0.0524 4.1918,2.2e-4 6.2812,-0.15625 2.0941,-0.14569 4.1809,-0.39611 6.25,-0.75 2.0733,-0.3552 4.1288,-0.8143 6.1562,-1.375 2.0212,-0.5667 4.0141,-1.2345 5.9688,-2 1.9578,-0.75768 3.8776,-1.6133 5.75,-2.5625 1.8735,-0.94966 3.6994,-1.9931 5.4688,-3.125 1.7685,-1.1425 3.4797,-2.3737 5.125,-3.6875 1.6408,-1.3058 3.2163,-2.6935 4.7188,-4.1562 1.5129,-1.4581 2.9528,-2.9919 4.3125,-4.5938 1.1905,-1.4386 2.317,-2.9301 3.375,-4.4688 -1.5137,-7.6081 -4.5862,-15.008 -9.75,-21.562 l -41.568,31.431 z"
       style="color:#000000;fill:#84be0e;stroke:#84be0e;stroke-width:1.15690005000000000;stroke-linecap:round;stroke-linejoin:round;stroke-dasharray:3.47064246000000010, 1.15688082000000000;stroke-opacity:1;fill-opacity:1"
       id="path4212" />
    <path
       id="path3160-61"
       d="m 127.02695,207.03305 a 63.015474,63.015402 0 1 1 -126.0289752,0 63.015474,63.015402 0 1 1 126.0289752,0 z"
       inkscape:connector-curvature="0"
       style="fill:none;stroke:#84be0e;stroke-width:1.96927655000000000;stroke-linecap:round;stroke-linejoin:round;stroke-opacity:1" />
    <path
       id="path3160-2"
       d="m 413.44595,64.011052 a 63.015474,63.015402 0 1 1 -126.02898,0 63.015474,63.015402 0 1 1 126.02898,0 z"
       inkscape:connector-curvature="0"
       style="fill:none;stroke:#84be0e;stroke-width:1.96927655000000000;stroke-linecap:round;stroke-linejoin:round;stroke-opacity:1" />
    <path
       inkscape:connector-curvature="0"
       d="m 310.43,100.006 c 0,2.7614 -2.2386,5 -5,5 -2.7614,0 -5,-2.2386 -5,-5 0,-2.7614 2.2386,-5 5,-5 2.7614,0 5,2.2386 5,5 z"
       style="color:#000000;fill:#84be0e;stroke:#84be0e;stroke-opacity:1;fill-opacity:1"
       id="path4119" />
    <path
       inkscape:connector-curvature="0"
       d="m 297.625,55.811 -2.195,2.195 2.805,2.805 -2.805,2.805 2.195,2.195 2.805,-2.805 2.805,2.805 2.195,-2.195 -2.805,-2.805 2.805,-2.805 -2.195,-2.195 -2.805,2.805 -2.805,-2.805 z"
       style="text-indent:0;text-transform:none;block-progression:tb;color:#000000;fill:#84be0e;stroke:#84be0e;stroke-opacity:1;fill-opacity:1"
       id="path4122" />
    <path
       inkscape:connector-curvature="0"
       d="m 335.43,90.006 c 0,2.7614 -2.2386,5 -5,5 -2.7614,0 -5,-2.2386 -5,-5 0,-2.7614 2.2386,-5 5,-5 2.7614,0 5,2.2386 5,5 z"
       style="color:#000000;fill:#84be0e;stroke:#84be0e;stroke-opacity:1;fill-opacity:1"
       id="path4169" />
    <path
       inkscape:connector-curvature="0"
       d="m 314.82,43.006 -2.195,2.195 2.805,2.805 -2.805,2.805 2.195,2.195 2.805,-2.805 2.805,2.805 2.195,-2.195 -2.805,-2.805 2.805,-2.805 -2.195,-2.195 -2.805,2.805 -2.805,-2.805 z"
       style="text-indent:0;text-transform:none;block-progression:tb;color:#000000;fill:#84be0e;stroke:#84be0e;stroke-opacity:1;fill-opacity:1"
       id="path4171" />
    <path
       inkscape:connector-curvature="0"
       d="m 360.43,95.006 c 0,2.7614 -2.2386,5 -5,5 -2.7614,0 -5,-2.2386 -5,-5 0,-2.7614 2.2386,-5 5,-5 2.7614,0 5,2.2386 5,5 z"
       style="color:#000000;fill:#84be0e;stroke:#84be0e;stroke-opacity:1;fill-opacity:1"
       id="path4173" />
    <path
       inkscape:connector-curvature="0"
       d="m 337.625,30.201 -2.1951,2.1951 2.8049,2.8049 -2.805,2.805 2.195,2.195 2.805,-2.805 2.805,2.805 2.195,-2.195 -2.805,-2.805 2.805,-2.805 -2.195,-2.195 -2.805,2.805 -2.805,-2.805 z"
       style="text-indent:0;text-transform:none;block-progression:tb;color:#000000;fill:#84be0e;stroke:#84be0e;stroke-opacity:1;fill-opacity:1"
       id="path4175" />
    <path
       inkscape:connector-curvature="0"
       d="m 375.43,75.006 c 0,2.7614 -2.2386,5 -5,5 -2.7614,0 -5,-2.2386 -5,-5 0,-2.7614 2.2386,-5 5,-5 2.7614,0 5,2.2386 5,5 z"
       style="color:#000000;fill:#84be0e;stroke:#84be0e;stroke-opacity:1;fill-opacity:1"
       id="path4177" />
    <path
       inkscape:connector-curvature="0"
       d="m 357.625,35.201 -2.1951,2.1951 2.8049,2.8049 -2.805,2.805 2.195,2.195 2.805,-2.805 2.805,2.805 2.195,-2.195 -2.805,-2.805 2.805,-2.805 -2.195,-2.195 -2.805,2.805 -2.805,-2.805 z"
       style="text-indent:0;text-transform:none;block-progression:tb;color:#000000;fill:#84be0e;stroke:#84be0e;stroke-opacity:1;fill-opacity:1"
       id="path4179" />
    <path
       inkscape:connector-curvature="0"
       d="m 372.625,30.201 -2.1951,2.1951 2.8049,2.8049 -2.805,2.805 2.195,2.195 2.805,-2.805 2.805,2.805 2.195,-2.195 -2.805,-2.805 2.805,-2.805 -2.195,-2.195 -2.805,2.805 -2.805,-2.805 z"
       style="text-indent:0;text-transform:none;block-progression:tb;color:#000000;fill:#84be0e;stroke:#84be0e;stroke-opacity:1;fill-opacity:1"
       id="path4181" />
    <path
       inkscape:connector-curvature="0"
       d="m 390.43,90.006 c 0,2.7614 -2.2386,5 -5,5 -2.7614,0 -5,-2.2386 -5,-5 0,-2.7614 2.2386,-5 5,-5 2.7614,0 5,2.2386 5,5 z"
       style="color:#000000;fill:#84be0e;stroke:#84be0e;stroke-opacity:1;fill-opacity:1"
       id="path4183" />
    <path
       inkscape:connector-curvature="0"
       d="m 410.43,75.006 c 0,2.7614 -2.2386,5 -5,5 -2.7614,0 -5,-2.2386 -5,-5 0,-2.7614 2.2386,-5 5,-5 2.7614,0 5,2.2386 5,5 z"
       style="color:#000000;fill:#84be0e;stroke:#84be0e;stroke-opacity:1;fill-opacity:1"
       id="path4185" />
    <path
       inkscape:connector-curvature="0"
       d="m 392.63,45.201 -2.2,2.195 2.8,2.805 -2.8,2.805 2.2,2.195 2.8,-2.805 2.8,2.805 2.2,-2.195 -2.8,-2.805 2.8,-2.805 -2.2,-2.195 -2.8,2.805 -2.8,-2.805 z"
       style="text-indent:0;text-transform:none;block-progression:tb;color:#000000;fill:#84be0e;stroke:#84be0e;stroke-opacity:1;fill-opacity:1"
       id="path4187" />
    <path
       style="fill:none;stroke:#84be0e;stroke-dasharray:3, 1;stroke-opacity:1"
       inkscape:connector-curvature="0"
       d="m 300.43,58.006 15,-10 25,-15 20,5 15,-5 20,15"
       id="path4189" />
    <path
       style="fill:none;stroke:#84be0e;stroke-dasharray:2, 1;stroke-opacity:1"
       inkscape:connector-curvature="0"
       d="m 305.43,100.006 100,-25"
       id="path4191" />
  </g>
  <metadata
     id="metadata117">
    <rdf:RDF>
      <cc:Work>
        <dc:format>image/svg+xml</dc:format>
        <dc:type
           rdf:resource="http://purl.org/dc/dcmitype/StillImage" />
        <cc:license
           rdf:resource="http://creativecommons.org/licenses/publicdomain/" />
        <dc:publisher>
          <cc:Agent
             rdf:about="http://openclipart.org/">
            <dc:title>Openclipart</dc:title>
          </cc:Agent>
        </dc:publisher>
        <dc:title></dc:title>
        <dc:date>2012-09-06T20:29:21</dc:date>
        <dc:description>Check others icons on my &quot;Minimal Icon Set&quot; collection.\nSet of simple icons useful for gui design and applications use interface. Icons representing various graph and plotting </dc:description>
        <dc:source>http://openclipart.org/detail/172197/icon-set-graph-by-mi_brami-172197</dc:source>
        <dc:creator>
          <cc:Agent>
            <dc:title>mi_brami</dc:title>
          </cc:Agent>
        </dc:creator>
        <dc:subject>
          <rdf:Bag>
            <rdf:li>Icon</rdf:li>
            <rdf:li>area</rdf:li>
            <rdf:li>b&amp;w</rdf:li>
            <rdf:li>barcode</rdf:li>
            <rdf:li>bars</rdf:li>
            <rdf:li>black</rdf:li>
            <rdf:li>clip art</rdf:li>
            <rdf:li>clipart</rdf:li>
            <rdf:li>data</rdf:li>
            <rdf:li>graph</rdf:li>
            <rdf:li>gray</rdf:li>
            <rdf:li>icon</rdf:li>
            <rdf:li>pie</rdf:li>
            <rdf:li>plot</rdf:li>
            <rdf:li>round</rdf:li>
            <rdf:li>scatter</rdf:li>
            <rdf:li>table</rdf:li>
            <rdf:li>transparent</rdf:li>
            <rdf:li>white</rdf:li>
            <rdf:li>xy</rdf:li>
          </rdf:Bag>
        </dc:subject>
      </cc:Work>
      <cc:License
         rdf:about="http://creativecommons.org/licenses/publicdomain/">
        <cc:permits
           rdf:resource="http://creativecommons.org/ns#Reproduction" />
        <cc:permits
           rdf:resource="http://creativecommons.org/ns#Distribution" />
        <cc:permits
           rdf:resource="http://creativecommons.org/ns#DerivativeWorks" />
      </cc:License>
    </rdf:RDF>
  </metadata>
</svg>
