<?xml version="1.0" encoding="UTF-8" standalone="no"?>
<!-- Generator: Adobe Illustrator 15.1.0, SVG Export Plug-In . SVG Version: 6.00 Build 0)  -->

<svg
   xmlns:dc="http://purl.org/dc/elements/1.1/"
   xmlns:cc="http://creativecommons.org/ns#"
   xmlns:rdf="http://www.w3.org/1999/02/22-rdf-syntax-ns#"
   xmlns:svg="http://www.w3.org/2000/svg"
   xmlns="http://www.w3.org/2000/svg"
   xmlns:sodipodi="http://sodipodi.sourceforge.net/DTD/sodipodi-0.dtd"
   xmlns:inkscape="http://www.inkscape.org/namespaces/inkscape"
   version="1.1"
   x="0px"
   y="0px"
   width="32px"
   height="32px"
   viewBox="0 0 32 32"
   style="enable-background:new 0 0 32 32;"
   xml:space="preserve"
   id="svg2"
   inkscape:version="0.48.4 r9939"
   sodipodi:docname="loop.svg"><metadata
   id="metadata16"><rdf:RDF><cc:Work
       rdf:about=""><dc:format>image/svg+xml</dc:format><dc:type
         rdf:resource="http://purl.org/dc/dcmitype/StillImage" /><dc:title></dc:title></cc:Work></rdf:RDF></metadata><defs
   id="defs14" /><sodipodi:namedview
   pagecolor="#ffffff"
   bordercolor="#666666"
   borderopacity="1"
   objecttolerance="10"
   gridtolerance="10"
   guidetolerance="10"
   inkscape:pageopacity="0"
   inkscape:pageshadow="2"
   inkscape:window-width="656"
   inkscape:window-height="480"
   id="namedview12"
   showgrid="false"
   inkscape:zoom="7.375"
   inkscape:cx="16"
   inkscape:cy="16"
   inkscape:window-x="0"
   inkscape:window-y="0"
   inkscape:window-maximized="0"
   inkscape:current-layer="svg2" />
<g
   id="Layer_1"
   style="fill:#84be0e;fill-opacity:1">
</g>
<g
   id="loop"
   style="fill:#84be0e;fill-opacity:1">
	<g
   id="g6"
   style="fill:#84be0e;fill-opacity:1">
		<path
   style="fill:#84be0e;fill-opacity:1"
   d="M9.805,3.677L4,9.479V3.841H0V15.84h12v-4H7.299l5.334-5.334c3.389-3.392,9.309-3.392,12.703,0    l2.828-2.829C23.262-1.229,14.707-1.222,9.805,3.677z"
   id="path8" />
		<path
   style="fill:#84be0e;fill-opacity:1"
   d="M20,16.035v4h4.703l-5.336,5.34c-3.389,3.391-9.309,3.391-12.701,0l-2.83,2.82    C6.287,30.648,9.551,32,13.02,32c3.471,0,6.727-1.352,9.176-3.805L28,22.395v5.637h4V16.035H20z"
   id="path10" />
	</g>
</g>
</svg>