<?xml version="1.0" encoding="UTF-8" standalone="no"?>
<!-- Generator: Adobe Illustrator 15.1.0, SVG Export Plug-In . SVG Version: 6.00 Build 0)  -->

<svg
   xmlns:dc="http://purl.org/dc/elements/1.1/"
   xmlns:cc="http://creativecommons.org/ns#"
   xmlns:rdf="http://www.w3.org/1999/02/22-rdf-syntax-ns#"
   xmlns:svg="http://www.w3.org/2000/svg"
   xmlns="http://www.w3.org/2000/svg"
   xmlns:sodipodi="http://sodipodi.sourceforge.net/DTD/sodipodi-0.dtd"
   xmlns:inkscape="http://www.inkscape.org/namespaces/inkscape"
   version="1.1"
   x="0px"
   y="0px"
   width="32px"
   height="32px"
   viewBox="0 0 32 32"
   style="enable-background:new 0 0 32 32;"
   xml:space="preserve"
   id="svg4951"
   inkscape:version="0.48.4 r9939"
   sodipodi:docname="new_window.svg"><metadata
   id="metadata4961"><rdf:RDF><cc:Work
       rdf:about=""><dc:format>image/svg+xml</dc:format><dc:type
         rdf:resource="http://purl.org/dc/dcmitype/StillImage" /><dc:title></dc:title></cc:Work></rdf:RDF></metadata><defs
   id="defs4959" /><sodipodi:namedview
   pagecolor="#ffffff"
   bordercolor="#666666"
   borderopacity="1"
   objecttolerance="10"
   gridtolerance="10"
   guidetolerance="10"
   inkscape:pageopacity="0"
   inkscape:pageshadow="2"
   inkscape:window-width="1920"
   inkscape:window-height="1138"
   id="namedview4957"
   showgrid="false"
   inkscape:zoom="10.429825"
   inkscape:cx="52.280198"
   inkscape:cy="-0.61368569"
   inkscape:window-x="-8"
   inkscape:window-y="-8"
   inkscape:window-maximized="1"
   inkscape:current-layer="new_x5F_window" />
<g
   id="Layer_1">
</g>
<g
   id="new_x5F_window">
	<path
   style="fill:#84be0e;fill-opacity:1"
   d="M32,0H8v8C5.094,8,0,8,0,8v24h24v-8h8V0z M20,28H4V16h4v8h12C20,25.789,20,28,20,28z M28,20H12V8h16   V20z"
   id="path4955" />
<path
   style="fill:none;stroke:none"
   d="m 0.01476811,19.995534 0,-11.9608911 4.00294349,0 4.0029435,0 0,-4.0029435 0,-4.00294345 11.9848609,0 11.98486,0 0,11.98486105 0,11.98486 -4.002943,0 -4.002943,0 0,3.978974 0,3.978974 -11.984861,0 -11.98486089,0 0,-11.960891 z m 19.99074789,6.0164 0,-2.013457 -5.992431,0 -5.9924299,0 0,-4.002943 0,-4.002944 -2.0134566,0 -2.0134566,0 0,6.0164 0,6.016401 8.0058871,0 8.005887,0 0,-2.013457 z m 8.005887,-12.00883 0,-6.0164005 -8.005887,0 -8.005887,0 0,6.0164005 0,6.0164 8.005887,0 8.005887,0 0,-6.0164 z"
   id="path5483"
   inkscape:connector-curvature="0" /><path
   style="fill:none;stroke:none"
   d="m 0.01476811,19.995534 0,-11.9608911 4.00294349,0 4.0029435,0 0,-4.0029435 0,-4.00294345 11.9848609,0 11.98486,0 0,11.98486105 0,11.98486 -4.002943,0 -4.002943,0 0,3.978974 0,3.978974 -11.984861,0 -11.98486089,0 0,-11.960891 z m 19.99074789,6.0164 0,-2.013457 -5.992431,0 -5.9924299,0 0,-4.002943 0,-4.002944 -2.0134566,0 -2.0134566,0 0,6.0164 0,6.016401 8.0058871,0 8.005887,0 0,-2.013457 z m 8.005887,-12.00883 0,-6.0164005 -8.005887,0 -8.005887,0 0,6.0164005 0,6.0164 8.005887,0 8.005887,0 0,-6.0164 z"
   id="path5485"
   inkscape:connector-curvature="0" /></g>
<path
   style="fill:none;fill-opacity:1;fill-rule:nonzero;stroke:none;stroke-opacity:1"
   d="m 0.05423729,20 0,-12 4.00000001,0 4,0 0,-4 0,-4 11.9322037,0 11.932203,0 0,12 0,12 -4,0 -4,0 0,4 0,4 -11.932203,0 -11.93220371,0 0,-12 z m 20.06779671,6.033898 0,-2.033898 -6.033898,0 -6.0338987,0 0,-4 0,-4 -2.0338983,0 -2.0338983,0 0,6.033898 0,6.033899 8.0677963,0 8.067797,0 0,-2.033899 z m 8,-12 0,-6.033898 -8.067797,0 -8.067796,0 0,6.033898 0,6.033899 8.067796,0 8.067797,0 0,-6.033899 z"
   id="path4965"
   inkscape:connector-curvature="0" /></svg>