<?xml version="1.0" encoding="UTF-8" standalone="no"?>
<!-- Generator: Adobe Illustrator 15.1.0, SVG Export Plug-In . SVG Version: 6.00 Build 0)  -->

<svg
   xmlns:dc="http://purl.org/dc/elements/1.1/"
   xmlns:cc="http://creativecommons.org/ns#"
   xmlns:rdf="http://www.w3.org/1999/02/22-rdf-syntax-ns#"
   xmlns:svg="http://www.w3.org/2000/svg"
   xmlns="http://www.w3.org/2000/svg"
   xmlns:sodipodi="http://sodipodi.sourceforge.net/DTD/sodipodi-0.dtd"
   xmlns:inkscape="http://www.inkscape.org/namespaces/inkscape"
   version="1.1"
   x="0px"
   y="0px"
   width="32px"
   height="32.002px"
   viewBox="0 0 32 32.002"
   style="enable-background:new 0 0 32 32.002;"
   xml:space="preserve"
   id="svg2"
   inkscape:version="0.48.4 r9939"
   sodipodi:docname="undo.svg"><metadata
   id="metadata16"><rdf:RDF><cc:Work
       rdf:about=""><dc:format>image/svg+xml</dc:format><dc:type
         rdf:resource="http://purl.org/dc/dcmitype/StillImage" /><dc:title></dc:title></cc:Work></rdf:RDF></metadata><defs
   id="defs14" /><sodipodi:namedview
   pagecolor="#ffffff"
   bordercolor="#666666"
   borderopacity="1"
   objecttolerance="10"
   gridtolerance="10"
   guidetolerance="10"
   inkscape:pageopacity="0"
   inkscape:pageshadow="2"
   inkscape:window-width="656"
   inkscape:window-height="480"
   id="namedview12"
   showgrid="false"
   inkscape:zoom="7.3745393"
   inkscape:cx="16"
   inkscape:cy="16.000999"
   inkscape:window-x="0"
   inkscape:window-y="0"
   inkscape:window-maximized="0"
   inkscape:current-layer="svg2" />
<g
   id="Layer_1"
   style="stroke:none;stroke-opacity:1;fill:#84be0e;fill-opacity:1">
</g>
<g
   id="undo"
   style="fill:#84be0e;fill-opacity:1;stroke:none"
   transform="matrix(-1,0,0,1,32,0)">
	<g
   id="g6"
   style="fill:#84be0e;fill-opacity:1;stroke:none">
		<path
   style="fill:#84be0e;fill-opacity:1;stroke:none"
   d="m 28.156,3.719 c -4.957,-4.957 -13.605,-4.961 -18.559,0 L 4,9.32 V 4 H 0 v 12.007 h 12 v -3.92 H 6.977 L 12.43,6.55 C 15.875,3.101 21.883,3.101 25.328,6.554 27.051,8.277 28,10.566 28,13.088 c 0,2.357 -0.949,4.646 -2.672,6.373 l -3.016,3.014 2.828,2.828 3.016,-3.008 C 30.633,19.809 32,16.512 32,13.088 32,9.496 30.633,6.199 28.156,3.719 z"
   id="path8"
   inkscape:connector-curvature="0" />
		<polygon
   style="fill:#84be0e;fill-opacity:1;stroke:none"
   points="15.621,29.166 18.449,26.338 21.277,29.166 18.449,32.002 "
   id="polygon10" />
	</g>
</g>
</svg>