<?xml version="1.0" encoding="UTF-8" standalone="no"?>
<svg
   xmlns:dc="http://purl.org/dc/elements/1.1/"
   xmlns:cc="http://creativecommons.org/ns#"
   xmlns:rdf="http://www.w3.org/1999/02/22-rdf-syntax-ns#"
   xmlns:svg="http://www.w3.org/2000/svg"
   xmlns="http://www.w3.org/2000/svg"
   xmlns:sodipodi="http://sodipodi.sourceforge.net/DTD/sodipodi-0.dtd"
   xmlns:inkscape="http://www.inkscape.org/namespaces/inkscape"
   id="svg2"
   viewBox="0 0 128 128"
   version="1.0"
   inkscape:version="0.48.4 r9939"
   width="100%"
   height="100%"
   sodipodi:docname="session.svg">
  <defs
     id="defs17" />
  <sodipodi:namedview
     pagecolor="#ffffff"
     bordercolor="#666666"
     borderopacity="1"
     objecttolerance="10"
     gridtolerance="10"
     guidetolerance="10"
     inkscape:pageopacity="0"
     inkscape:pageshadow="2"
     inkscape:window-width="656"
     inkscape:window-height="480"
     id="namedview15"
     showgrid="false"
     inkscape:zoom="1.84375"
     inkscape:cx="52.111692"
     inkscape:cy="68.945584"
     inkscape:window-x="0"
     inkscape:window-y="0"
     inkscape:window-maximized="0"
     inkscape:current-layer="layer1" />
  <g
     id="layer1"
     transform="translate(-66.38 -391.32)">
    <path
       id="path7304"
       d="M 95.556,452.65 H 165.26 V 508.1 H 95.556 v -55.45 z"
       style="fill:none"
       inkscape:connector-curvature="0" />
    <path
       id="path7300"
       d="m 98.38,481.8 c 27.68,3.04 41.16,12.11 48,24 h -48 v -24 z"
       style="fill:#84be0e;fill-opacity:1;stroke:#84be0e;stroke-opacity:1"
       inkscape:connector-curvature="0" />
    <path
       id="path7302"
       d="m 165.47,483.22 c -27.68,3.05 -41.16,12.12 -48,24 h 48 v -24 z"
       style="fill:#84be0e;fill-opacity:1;stroke:#84be0e;stroke-opacity:1"
       inkscape:connector-curvature="0" />
    <path
       id="rect7265"
       d="M 96.506,452.65 H 166.21 V 508.1 H 96.506 v -55.45 z"
       style="fill:none;stroke:#84be0e;stroke-width:5;stroke-miterlimit:4;stroke-opacity:1;stroke-dasharray:none"
       inkscape:connector-curvature="0" />
    <path
       id="path7270"
       d="M 95.533,452.36 74.568,438.38 v 76.87 l 20.965,-6.99 v -55.9 z"
       style="fill:none;stroke:#84be0e;stroke-width:5;stroke-miterlimit:4;stroke-opacity:1;stroke-dasharray:none"
       inkscape:connector-curvature="0" />
    <path
       id="path7272"
       d="m 74.568,473.32 20.965,6.99"
       style="stroke:#84be0e;stroke-width:5;stroke-miterlimit:4;stroke-opacity:1;stroke-dasharray:none"
       inkscape:connector-curvature="0" />
    <g
       id="g7278"
       transform="matrix(-0.87354,0,0,0.87354,244.37,82.571)">
      <path
         id="path7280"
         transform="translate(66.38,391.32)"
         d="M 24,32 0,16 v 88 L 24,96 V 32 z"
         style="fill:none;stroke:#84be0e;stroke-width:5.72383642;stroke-miterlimit:4;stroke-opacity:1;stroke-dasharray:none"
         inkscape:connector-curvature="0" />
      <path
         id="path7282"
         transform="translate(66.38,391.32)"
         d="m 0,56 24,8"
         style="stroke:#84be0e;stroke-width:5.72383642;stroke-miterlimit:4;stroke-opacity:1;stroke-dasharray:none"
         inkscape:connector-curvature="0" />
    </g>
    <path
       inkscape:connector-curvature="0"
       d="m 109.6353,394.39415 c -1.17379,0 -2.125,0.95122 -2.125,2.125 l 0,47.5 c 0,1.17378 0.95121,2.125 2.125,2.125 l 45.625,0 c 1.17378,0 2.125,-0.95122 2.125,-2.125 l 0,-42.625 -7.03125,-7 -40.71875,0 z m 8.5,2.125 23.25,0 0,13.25 c 0,1.35304 -1.17961,2.4375 -2.65625,2.4375 l -17.90625,0 c -1.47664,0 -2.6875,-1.08446 -2.6875,-2.4375 l 0,-13.25 z m 4.90625,3.28125 a 1.39915,1.39915 0 0 0 -1.28125,1.40625 l 0,6.25 a 1.39915,1.39915 0 0 0 1.375,1.375 l 3.8125,0 a 1.39915,1.39915 0 0 0 1.375,-1.375 l 0,-6.25 a 1.39915,1.39915 0 0 0 -1.375,-1.40625 l -3.8125,0 a 1.39915,1.39915 0 0 0 -0.0937,0 z m -9.40625,14.0625 37.65625,0 a 2.03509,2.03509 0 0 1 2.03125,2.03125 l 0,24.5625 a 2.03509,2.03509 0 0 1 -2.03125,2.03125 l -37.65625,0 a 2.03509,2.03509 0 0 1 -2.0625,-2.03125 l 0,-24.5625 a 2.03509,2.03509 0 0 1 2.0625,-2.03125 z"
       id="path4"
       style="fill:#84be0e;fill-opacity:1;stroke:none" />
    <path
       inkscape:connector-curvature="0"
       d="m 116.25138,421.84057 33.84936,0"
       id="path3763"
       style="fill:none;stroke:#84be0e;stroke-width:1.04466176px;stroke-linecap:butt;stroke-linejoin:miter;stroke-opacity:1" />
    <path
       inkscape:connector-curvature="0"
       d="m 116.25138,426.84057 33.84936,0"
       id="path3763-1"
       style="fill:none;stroke:#84be0e;stroke-width:1.04466176px;stroke-linecap:butt;stroke-linejoin:miter;stroke-opacity:1" />
    <path
       inkscape:connector-curvature="0"
       d="m 116.25138,431.84057 33.84936,0"
       id="path3763-1-7"
       style="fill:none;stroke:#84be0e;stroke-width:1.04466176px;stroke-linecap:butt;stroke-linejoin:miter;stroke-opacity:1" />
    <path
       inkscape:connector-curvature="0"
       d="m 116.25138,436.84057 33.84936,0"
       id="path3763-1-7-4"
       style="fill:none;stroke:#84be0e;stroke-width:1.04466176px;stroke-linecap:butt;stroke-linejoin:miter;stroke-opacity:1" />
  </g>
  <metadata
     id="metadata13">
    <rdf:RDF>
      <cc:Work>
        <dc:format>image/svg+xml</dc:format>
        <dc:type
           rdf:resource="http://purl.org/dc/dcmitype/StillImage" />
        <cc:license
           rdf:resource="http://creativecommons.org/licenses/publicdomain/" />
        <dc:publisher>
          <cc:Agent
             rdf:about="http://openclipart.org/">
            <dc:title>Openclipart</dc:title>
          </cc:Agent>
        </dc:publisher>
        <dc:title></dc:title>
        <dc:date>2009-03-15T15:21:16</dc:date>
        <dc:description>A simple window icon.</dc:description>
        <dc:source>http://openclipart.org/detail/22313/window-icon-by-pitr-22313</dc:source>
        <dc:creator>
          <cc:Agent>
            <dc:title>pitr</dc:title>
          </cc:Agent>
        </dc:creator>
        <dc:subject>
          <rdf:Bag>
            <rdf:li>architecture</rdf:li>
            <rdf:li>clip art</rdf:li>
            <rdf:li>clipart</rdf:li>
            <rdf:li>contour</rdf:li>
            <rdf:li>household</rdf:li>
            <rdf:li>icon</rdf:li>
            <rdf:li>image</rdf:li>
            <rdf:li>landscape</rdf:li>
            <rdf:li>media</rdf:li>
            <rdf:li>minimalistic</rdf:li>
            <rdf:li>png</rdf:li>
            <rdf:li>public domain</rdf:li>
            <rdf:li>simple</rdf:li>
            <rdf:li>svg</rdf:li>
            <rdf:li>window</rdf:li>
          </rdf:Bag>
        </dc:subject>
      </cc:Work>
      <cc:License
         rdf:about="http://creativecommons.org/licenses/publicdomain/">
        <cc:permits
           rdf:resource="http://creativecommons.org/ns#Reproduction" />
        <cc:permits
           rdf:resource="http://creativecommons.org/ns#Distribution" />
        <cc:permits
           rdf:resource="http://creativecommons.org/ns#DerivativeWorks" />
      </cc:License>
    </rdf:RDF>
  </metadata>
</svg>
