<?xml version="1.0" encoding="UTF-8" standalone="no"?>
<!-- Generator: Adobe Illustrator 15.1.0, SVG Export Plug-In . SVG Version: 6.00 Build 0)  -->

<svg
   xmlns:dc="http://purl.org/dc/elements/1.1/"
   xmlns:cc="http://creativecommons.org/ns#"
   xmlns:rdf="http://www.w3.org/1999/02/22-rdf-syntax-ns#"
   xmlns:svg="http://www.w3.org/2000/svg"
   xmlns="http://www.w3.org/2000/svg"
   xmlns:sodipodi="http://sodipodi.sourceforge.net/DTD/sodipodi-0.dtd"
   xmlns:inkscape="http://www.inkscape.org/namespaces/inkscape"
   version="1.1"
   x="0px"
   y="0px"
   width="32px"
   height="32px"
   viewBox="0 0 32 32"
   style="enable-background:new 0 0 32 32;"
   xml:space="preserve"
   id="svg7127"
   inkscape:version="0.48.4 r9939"
   sodipodi:docname="wrench.svg"><metadata
   id="metadata7137"><rdf:RDF><cc:Work
       rdf:about=""><dc:format>image/svg+xml</dc:format><dc:type
         rdf:resource="http://purl.org/dc/dcmitype/StillImage" /><dc:title></dc:title></cc:Work></rdf:RDF></metadata><defs
   id="defs7135" /><sodipodi:namedview
   pagecolor="#ffffff"
   bordercolor="#666666"
   borderopacity="1"
   objecttolerance="10"
   gridtolerance="10"
   guidetolerance="10"
   inkscape:pageopacity="0"
   inkscape:pageshadow="2"
   inkscape:window-width="656"
   inkscape:window-height="480"
   id="namedview7133"
   showgrid="false"
   inkscape:zoom="7.375"
   inkscape:cx="16"
   inkscape:cy="17.491525"
   inkscape:window-x="0"
   inkscape:window-y="0"
   inkscape:window-maximized="0"
   inkscape:current-layer="wrench" />
<g
   id="Layer_1">
</g>
<g
   id="wrench">
	<path
   style="fill:#84be0e;fill-opacity:1"
   d="M31.605,5.643l-5.023,5.023h-5.25V5.334l4.961-4.959C25.562,0.154,24.801,0,24,0   c-4.418,0-8,3.584-8,8c0,1.232,0.301,2.385,0.801,3.43L0.781,27.445C0.301,27.93,0,28.594,0,29.336C0,30.805,1.191,32,2.668,32   c0.738,0,1.406-0.297,1.883-0.781l16.023-16.018C21.613,15.697,22.77,16,24,16c4.418,0,8-3.584,8-8   C32,7.174,31.84,6.393,31.605,5.643z"
   id="path7131" />
</g>
<path
   style="fill:none;fill-opacity:1;fill-rule:nonzero;stroke:none;stroke-opacity:1"
   d="M 1.6135593,31.672222 C 0.83153733,31.323161 0.05306015,30.185319 0.05499348,29.394186 0.05771698,28.279715 -0.03762861,28.387486 8.6065044,19.728278 L 16.863826,11.456556 16.514769,10.452841 C 16.322788,9.9007986 16.132503,9.0100369 16.091915,8.473371 15.820948,4.8905641 18.448259,1.2878863 22.026487,0.33563985 22.898312,0.10362776 24.849043,0.07542706 25.600164,0.28397708 l 0.528976,0.14687146 -2.461179,2.46388066 -2.461181,2.4638807 0,2.6766273 0,2.6766268 2.744424,0 2.744423,0 2.457833,-2.4551391 2.457834,-2.4551395 0.172039,0.9117754 c 0.590735,3.130771 -0.949724,6.4011302 -3.818155,8.1058662 -1.324653,0.787253 -2.098636,0.977383 -3.978737,0.977383 -1.385543,0 -1.763808,-0.0493 -2.547782,-0.332069 l -0.920663,-0.33207 -8.231879,8.223366 C 7.7401056,27.897147 3.8833253,31.643054 3.6725288,31.721805 3.1498713,31.917064 2.10576,31.89192 1.6135593,31.672222 z"
   id="path7139"
   inkscape:connector-curvature="0" /></svg>