<?xml version="1.0" encoding="UTF-8" standalone="no"?>
<!-- Generator: Adobe Illustrator 15.1.0, SVG Export Plug-In . SVG Version: 6.00 Build 0)  -->

<svg
   xmlns:dc="http://purl.org/dc/elements/1.1/"
   xmlns:cc="http://creativecommons.org/ns#"
   xmlns:rdf="http://www.w3.org/1999/02/22-rdf-syntax-ns#"
   xmlns:svg="http://www.w3.org/2000/svg"
   xmlns="http://www.w3.org/2000/svg"
   xmlns:sodipodi="http://sodipodi.sourceforge.net/DTD/sodipodi-0.dtd"
   xmlns:inkscape="http://www.inkscape.org/namespaces/inkscape"
   version="1.1"
   x="0px"
   y="0px"
   width="28px"
   height="28px"
   viewBox="0 0 28 28"
   style="enable-background:new 0 0 28 28;"
   xml:space="preserve"
   id="svg5501"
   inkscape:version="0.48.4 r9939"
   sodipodi:docname="x.svg"><metadata
   id="metadata5513"><rdf:RDF><cc:Work
       rdf:about=""><dc:format>image/svg+xml</dc:format><dc:type
         rdf:resource="http://purl.org/dc/dcmitype/StillImage" /><dc:title></dc:title></cc:Work></rdf:RDF></metadata><defs
   id="defs5511" /><sodipodi:namedview
   pagecolor="#ffffff"
   bordercolor="#666666"
   borderopacity="1"
   objecttolerance="10"
   gridtolerance="10"
   guidetolerance="10"
   inkscape:pageopacity="0"
   inkscape:pageshadow="2"
   inkscape:window-width="1920"
   inkscape:window-height="1138"
   id="namedview5509"
   showgrid="false"
   inkscape:zoom="11.9198"
   inkscape:cx="20.632576"
   inkscape:cy="9.1939467"
   inkscape:window-x="-8"
   inkscape:window-y="-8"
   inkscape:window-maximized="1"
   inkscape:current-layer="x" />
<g
   id="Layer_1">
</g>
<g
   id="x">
	<g
   id="g5505"
   style="stroke:none;stroke-opacity:1;fill:#84be0e;fill-opacity:1">
		<polygon
   style="fill:#84be0e;stroke:none;stroke-opacity:1;fill-opacity:1"
   points="19.594,14 28,5.602 22.398,0 14,8.402 5.598,0 0,5.602 8.398,14 0,22.398 5.598,28 14,19.598 22.398,28 28,22.398 "
   id="polygon5507" />
	</g>
</g>
<path
   style="fill:#84be0e;fill-opacity:1;fill-rule:nonzero;stroke:none;stroke-opacity:1"
   d="M 2.835423,25.122236 0.10837373,22.393252 4.2897844,18.210597 8.4711951,14.027942 4.2594766,9.8174762 0.04775812,5.607011 2.8052999,2.8475951 5.5628419,0.08817936 9.7167847,4.2408861 c 2.2846693,2.2839888 4.2067763,4.1527068 4.2713513,4.1527068 0.06457,0 1.986681,-1.868718 4.271351,-4.1527068 l 4.153942,-4.15270674 2.757542,2.75941574 2.757542,2.7594159 -4.211718,4.2104652 -4.211719,4.2104658 4.181735,4.182979 4.181735,4.182979 -2.763008,2.758322 -2.763007,2.75832 -4.165941,-4.192839 -4.165941,-4.192839 -4.164417,4.163178 C 7.5558026,25.97779 5.6549627,27.85122 5.6221435,27.85122 5.5893243,27.85122 4.3353,26.623177 2.835423,25.122236 z"
   id="path5515"
   inkscape:connector-curvature="0" /></svg>